<svg xmlns="http://www.w3.org/2000/svg" xmlns:xlink="http://www.w3.org/1999/xlink" width="100" zoomAndPan="magnify" viewBox="0 0 75 74.999997" height="100" preserveAspectRatio="xMidYMid meet" version="1.0"><defs><clipPath id="c51c933ab1"><path d="M 12.421875 0 L 62.671875 0 L 62.671875 75 L 12.421875 75 Z M 12.421875 0 " clip-rule="nonzero"/></clipPath></defs><g clip-path="url(#c51c933ab1)"><path fill="#8d0140" d="M 37.496094 0 C 23.691406 0 12.496094 11.191406 12.496094 25 C 12.496094 29.6875 13.785156 34.070312 16.03125 37.820312 L 37.496094 75.003906 L 58.980469 37.792969 C 61.210938 34.050781 62.496094 29.675781 62.496094 25 C 62.496094 11.191406 51.304688 0 37.496094 0 Z M 37.496094 33.367188 C 32.878906 33.367188 29.132812 29.621094 29.132812 25 C 29.132812 20.378906 32.878906 16.632812 37.496094 16.632812 C 42.117188 16.632812 45.863281 20.378906 45.863281 25 C 45.863281 29.621094 42.117188 33.367188 37.496094 33.367188 Z M 37.496094 33.367188 " fill-opacity="1" fill-rule="nonzero"/></g></svg>