<svg xmlns="http://www.w3.org/2000/svg" xmlns:xlink="http://www.w3.org/1999/xlink" width="100" zoomAndPan="magnify" viewBox="0 0 75 74.999997" height="100" preserveAspectRatio="xMidYMid meet" version="1.0"><defs><clipPath id="eea8cd2776"><path d="M 0 15 L 75 15 L 75 60 L 0 60 Z M 0 15 " clip-rule="nonzero"/></clipPath></defs><g clip-path="url(#eea8cd2776)"><path fill="#ea638c" d="M 1.746094 15.644531 C 2.355469 15.242188 3.085938 15.007812 3.875 15.007812 L 71.125 15.007812 C 72.007812 15.007812 72.820312 15.304688 73.46875 15.800781 L 37.523438 35.3125 Z M 74.523438 57.980469 C 74.820312 57.4375 74.988281 56.8125 74.988281 56.148438 L 74.988281 19.339844 L 52.808594 31.164062 Z M 0.0117188 19.074219 L 0.0117188 56.148438 C 0.0117188 56.488281 0.0585938 56.820312 0.140625 57.136719 L 22.234375 31.167969 Z M 49.351562 33.105469 L 38.464844 39.207031 C 38.171875 39.371094 37.847656 39.453125 37.523438 39.453125 C 37.195312 39.453125 36.871094 39.371094 36.578125 39.207031 L 25.691406 33.105469 L 2.875 59.878906 C 3.195312 59.964844 3.527344 60.007812 3.875 60.007812 L 71.125 60.007812 C 71.152344 60.007812 71.175781 60.007812 71.199219 60.007812 Z M 49.351562 33.105469 " fill-opacity="1" fill-rule="nonzero"/></g></svg>