<svg xmlns="http://www.w3.org/2000/svg" xmlns:xlink="http://www.w3.org/1999/xlink" width="100" zoomAndPan="magnify" viewBox="0 0 75 74.999997" height="100" preserveAspectRatio="xMidYMid meet" version="1.0"><defs><clipPath id="48dbc317b8"><path d="M 3.75 3.75 L 71.25 3.75 L 71.25 71.25 L 3.75 71.25 Z M 3.75 3.75 " clip-rule="nonzero"/></clipPath></defs><g clip-path="url(#48dbc317b8)"><path fill="#000000" d="M 37.5 3.75 C 36.394531 3.75 35.292969 3.804688 34.191406 3.914062 C 33.09375 4.019531 32 4.183594 30.914062 4.398438 C 29.832031 4.613281 28.761719 4.882812 27.703125 5.203125 C 26.644531 5.523438 25.605469 5.894531 24.585938 6.320312 C 23.5625 6.742188 22.566406 7.214844 21.589844 7.734375 C 20.617188 8.257812 19.667969 8.824219 18.75 9.4375 C 17.832031 10.050781 16.945312 10.710938 16.089844 11.410156 C 15.234375 12.113281 14.417969 12.855469 13.636719 13.636719 C 12.855469 14.417969 12.113281 15.234375 11.410156 16.089844 C 10.710938 16.945312 10.050781 17.832031 9.4375 18.75 C 8.824219 19.667969 8.257812 20.617188 7.734375 21.589844 C 7.214844 22.566406 6.742188 23.5625 6.320312 24.585938 C 5.894531 25.605469 5.523438 26.644531 5.203125 27.703125 C 4.882812 28.761719 4.613281 29.832031 4.398438 30.914062 C 4.183594 32 4.019531 33.09375 3.914062 34.191406 C 3.804688 35.292969 3.75 36.394531 3.75 37.5 C 3.75 38.605469 3.804688 39.707031 3.914062 40.808594 C 4.019531 41.90625 4.183594 43 4.398438 44.085938 C 4.613281 45.167969 4.882812 46.238281 5.203125 47.296875 C 5.523438 48.355469 5.894531 49.394531 6.320312 50.414062 C 6.742188 51.4375 7.214844 52.433594 7.734375 53.410156 C 8.257812 54.382812 8.824219 55.332031 9.4375 56.25 C 10.050781 57.167969 10.710938 58.054688 11.410156 58.910156 C 12.113281 59.765625 12.855469 60.582031 13.636719 61.363281 C 14.417969 62.144531 15.234375 62.886719 16.089844 63.589844 C 16.945312 64.289062 17.832031 64.949219 18.75 65.5625 C 19.667969 66.175781 20.617188 66.742188 21.589844 67.265625 C 22.566406 67.785156 23.5625 68.257812 24.585938 68.679688 C 25.605469 69.105469 26.644531 69.476562 27.703125 69.796875 C 28.761719 70.117188 29.832031 70.386719 30.914062 70.601562 C 32 70.816406 33.09375 70.980469 34.191406 71.085938 C 35.292969 71.195312 36.394531 71.25 37.5 71.25 C 38.605469 71.25 39.707031 71.195312 40.808594 71.085938 C 41.90625 70.980469 43 70.816406 44.085938 70.601562 C 45.167969 70.386719 46.238281 70.117188 47.296875 69.796875 C 48.355469 69.476562 49.394531 69.105469 50.414062 68.679688 C 51.4375 68.257812 52.433594 67.785156 53.410156 67.265625 C 54.382812 66.742188 55.332031 66.175781 56.25 65.5625 C 57.167969 64.949219 58.054688 64.289062 58.910156 63.589844 C 59.765625 62.886719 60.582031 62.144531 61.363281 61.363281 C 62.144531 60.582031 62.886719 59.765625 63.589844 58.910156 C 64.289062 58.054688 64.949219 57.167969 65.5625 56.25 C 66.175781 55.332031 66.742188 54.382812 67.265625 53.410156 C 67.785156 52.433594 68.257812 51.4375 68.679688 50.414062 C 69.105469 49.394531 69.476562 48.355469 69.796875 47.296875 C 70.117188 46.238281 70.386719 45.167969 70.601562 44.085938 C 70.816406 43 70.980469 41.90625 71.085938 40.808594 C 71.195312 39.707031 71.25 38.605469 71.25 37.5 C 71.25 36.394531 71.195312 35.292969 71.085938 34.191406 C 70.980469 33.09375 70.816406 32 70.601562 30.914062 C 70.386719 29.832031 70.117188 28.761719 69.796875 27.703125 C 69.476562 26.644531 69.105469 25.605469 68.679688 24.585938 C 68.257812 23.5625 67.785156 22.566406 67.265625 21.589844 C 66.742188 20.617188 66.175781 19.667969 65.5625 18.75 C 64.949219 17.832031 64.289062 16.945312 63.589844 16.089844 C 62.886719 15.234375 62.144531 14.417969 61.363281 13.636719 C 60.582031 12.855469 59.765625 12.113281 58.910156 11.410156 C 58.054688 10.710938 57.167969 10.050781 56.25 9.4375 C 55.332031 8.824219 54.382812 8.257812 53.410156 7.734375 C 52.433594 7.214844 51.4375 6.742188 50.414062 6.320312 C 49.394531 5.894531 48.355469 5.523438 47.296875 5.203125 C 46.238281 4.882812 45.167969 4.613281 44.085938 4.398438 C 43 4.183594 41.90625 4.019531 40.808594 3.914062 C 39.707031 3.804688 38.605469 3.75 37.5 3.75 Z M 56.574219 50.324219 L 18.101562 50.324219 C 17.789062 50.324219 17.484375 50.265625 17.195312 50.144531 C 16.90625 50.023438 16.652344 49.855469 16.429688 49.632812 C 16.207031 49.410156 16.039062 49.15625 15.917969 48.867188 C 15.796875 48.578125 15.738281 48.277344 15.738281 47.960938 C 15.738281 47.648438 15.796875 47.347656 15.917969 47.058594 C 16.039062 46.769531 16.207031 46.511719 16.429688 46.292969 C 16.652344 46.070312 16.90625 45.898438 17.195312 45.78125 C 17.484375 45.660156 17.789062 45.601562 18.101562 45.601562 L 56.574219 45.601562 C 56.890625 45.601562 57.191406 45.660156 57.480469 45.78125 C 57.769531 45.898438 58.023438 46.070312 58.246094 46.292969 C 58.46875 46.511719 58.636719 46.769531 58.757812 47.058594 C 58.878906 47.347656 58.9375 47.648438 58.9375 47.960938 C 58.9375 48.277344 58.878906 48.578125 58.757812 48.867188 C 58.636719 49.15625 58.46875 49.410156 58.246094 49.632812 C 58.023438 49.855469 57.769531 50.023438 57.480469 50.144531 C 57.191406 50.265625 56.890625 50.324219 56.574219 50.324219 Z M 56.574219 40.199219 L 18.101562 40.199219 C 17.789062 40.199219 17.484375 40.140625 17.195312 40.019531 C 16.90625 39.898438 16.652344 39.730469 16.429688 39.507812 C 16.207031 39.285156 16.039062 39.03125 15.917969 38.742188 C 15.796875 38.453125 15.738281 38.152344 15.738281 37.835938 C 15.738281 37.523438 15.796875 37.222656 15.917969 36.933594 C 16.039062 36.644531 16.207031 36.386719 16.429688 36.167969 C 16.652344 35.945312 16.90625 35.773438 17.195312 35.65625 C 17.484375 35.535156 17.789062 35.476562 18.101562 35.476562 L 56.574219 35.476562 C 56.890625 35.476562 57.191406 35.535156 57.480469 35.65625 C 57.769531 35.773438 58.023438 35.945312 58.246094 36.167969 C 58.46875 36.386719 58.636719 36.644531 58.757812 36.933594 C 58.878906 37.222656 58.9375 37.523438 58.9375 37.835938 C 58.9375 38.152344 58.878906 38.453125 58.757812 38.742188 C 58.636719 39.03125 58.46875 39.285156 58.246094 39.507812 C 58.023438 39.730469 57.769531 39.898438 57.480469 40.019531 C 57.191406 40.140625 56.890625 40.199219 56.574219 40.199219 Z M 56.574219 30.074219 L 18.101562 30.074219 C 17.789062 30.074219 17.484375 30.015625 17.195312 29.894531 C 16.90625 29.773438 16.652344 29.605469 16.429688 29.382812 C 16.207031 29.160156 16.039062 28.90625 15.917969 28.617188 C 15.796875 28.328125 15.738281 28.027344 15.738281 27.710938 C 15.738281 27.398438 15.796875 27.097656 15.917969 26.808594 C 16.039062 26.519531 16.207031 26.261719 16.429688 26.042969 C 16.652344 25.820312 16.90625 25.648438 17.195312 25.53125 C 17.484375 25.410156 17.789062 25.351562 18.101562 25.351562 L 56.574219 25.351562 C 56.890625 25.351562 57.191406 25.410156 57.480469 25.53125 C 57.769531 25.648438 58.023438 25.820312 58.246094 26.042969 C 58.46875 26.261719 58.636719 26.519531 58.757812 26.808594 C 58.878906 27.097656 58.9375 27.398438 58.9375 27.710938 C 58.9375 28.027344 58.878906 28.328125 58.757812 28.617188 C 58.636719 28.90625 58.46875 29.160156 58.246094 29.382812 C 58.023438 29.605469 57.769531 29.773438 57.480469 29.894531 C 57.191406 30.015625 56.890625 30.074219 56.574219 30.074219 Z M 56.574219 30.074219 " fill-opacity="1" fill-rule="nonzero"/></g></svg>