<svg xmlns="http://www.w3.org/2000/svg" xmlns:xlink="http://www.w3.org/1999/xlink" width="500" zoomAndPan="magnify" viewBox="0 0 375 225" height="300" preserveAspectRatio="xMidYMid meet" version="1.0"><defs><g/><clipPath id="42eeb253b7"><path d="M 127.007812 58.015625 L 244.757812 58.015625 L 244.757812 109.015625 L 127.007812 109.015625 Z M 127.007812 58.015625 " clip-rule="nonzero"/></clipPath></defs><g clip-path="url(#42eeb253b7)"><path fill="#89023e" d="M 244.171875 92.960938 C 244.089844 92.949219 243.960938 92.964844 243.917969 93.019531 C 243.351562 93.707031 242.804688 94.402344 242.242188 95.085938 C 241.363281 96.148438 240.445312 97.171875 239.425781 98.113281 C 236.804688 100.546875 233.839844 102.464844 230.605469 103.976562 C 228.816406 104.8125 226.964844 105.472656 225.070312 106.019531 C 222.28125 106.816406 219.457031 107.472656 216.570312 107.871094 C 215.394531 108.035156 214.21875 108.09375 213.042969 108.207031 C 209.988281 108.488281 206.933594 108.367188 203.902344 107.984375 C 200.425781 107.546875 197.042969 106.6875 193.742188 105.492188 C 189.234375 103.871094 184.960938 101.746094 180.902344 99.207031 C 180.367188 98.878906 179.765625 98.496094 179.1875 98.0625 L 181.042969 96.527344 C 185.613281 92.8125 189.726562 88.660156 193.234375 83.921875 C 194.699219 81.9375 196.03125 79.867188 197.171875 77.683594 C 197.972656 76.152344 198.683594 74.582031 199.15625 72.917969 C 199.773438 70.71875 200.101562 68.496094 199.644531 66.210938 C 199.019531 63.054688 197.335938 60.707031 194.484375 59.226562 C 192.875 58.390625 191.152344 58.070312 189.347656 58.113281 C 187.210938 58.160156 185.292969 58.808594 183.578125 60.089844 C 181.859375 61.378906 180.464844 62.945312 179.40625 64.8125 C 179.289062 65.027344 179.160156 65.234375 179.011719 65.425781 C 178.976562 65.46875 178.792969 65.46875 178.761719 65.421875 C 178.070312 64.585938 177.378906 63.753906 176.523438 63.078125 C 175.277344 62.101562 173.953125 61.253906 172.519531 60.570312 C 171.273438 59.972656 169.949219 59.578125 168.574219 59.417969 C 166.34375 59.167969 164.253906 59.582031 162.40625 60.925781 C 161.359375 61.683594 160.484375 62.609375 159.804688 63.714844 C 158.457031 65.898438 157.746094 68.285156 157.707031 70.851562 C 157.664062 73.398438 158.222656 75.835938 159.253906 78.160156 C 160.4375 80.828125 161.898438 83.332031 163.71875 85.617188 C 166.214844 88.753906 169.03125 91.5625 172.082031 94.152344 C 173.511719 95.367188 174.980469 96.519531 176.5 97.613281 C 176.699219 97.761719 176.886719 97.921875 177.078125 98.074219 C 177.222656 98.191406 177.410156 98.324219 177.410156 98.324219 C 174.832031 100 172.34375 101.628906 169.550781 102.917969 C 168.433594 103.429688 167.300781 103.921875 166.144531 104.335938 C 162.429688 105.664062 158.628906 106.660156 154.703125 107.148438 C 151.367188 107.558594 148.03125 107.617188 144.695312 107.152344 C 143.910156 107.042969 143.140625 106.890625 142.363281 106.753906 C 140.570312 106.441406 138.769531 106.175781 136.984375 105.800781 C 135.25 105.433594 133.496094 105.210938 131.554688 104.894531 C 130.394531 104.78125 129.074219 104.6875 127.746094 104.710938 C 127.566406 104.820312 127.355469 104.898438 127.117188 104.9375 C 127.105469 105.09375 127.066406 105.253906 127.003906 105.414062 C 127.09375 105.503906 127.179688 105.597656 127.257812 105.699219 C 127.078125 105.460938 127.171875 105.566406 127.296875 105.703125 C 127.425781 105.710938 127.5625 105.714844 127.710938 105.71875 C 127.894531 105.71875 128.066406 105.757812 128.238281 105.808594 C 128.480469 105.800781 128.722656 105.796875 128.964844 105.796875 C 130.789062 105.8125 132.601562 106.023438 134.402344 106.3125 C 135.035156 106.410156 135.65625 106.5625 136.285156 106.675781 C 137.933594 106.964844 139.585938 107.21875 141.226562 107.546875 C 143.015625 107.90625 144.824219 108.105469 146.636719 108.277344 C 149.542969 108.554688 152.445312 108.441406 155.320312 108.011719 C 163.390625 106.816406 170.78125 103.875 177.523438 99.289062 C 177.777344 99.121094 178.011719 98.9375 178.253906 98.75 C 181.613281 100.898438 185.910156 103.328125 189.570312 104.894531 C 194.71875 107.085938 200.03125 108.628906 205.640625 109.070312 C 208.894531 109.332031 212.140625 109.226562 215.371094 108.859375 C 218.261719 108.535156 221.097656 107.910156 223.898438 107.125 C 227.039062 106.246094 230.066406 105.09375 232.949219 103.558594 C 237.375 101.199219 241.046875 97.980469 244 93.941406 C 244.144531 93.746094 244.246094 93.519531 244.359375 93.300781 C 244.410156 93.183594 244.324219 92.960938 244.171875 92.960938 Z M 178.390625 97.539062 C 173.769531 94.21875 169.007812 90.007812 165.449219 85.550781 C 163.847656 83.550781 162.484375 81.390625 161.335938 79.089844 C 160.542969 77.496094 159.929688 75.84375 159.59375 74.089844 C 159.183594 71.933594 159.136719 69.785156 159.746094 67.65625 C 160.046875 66.617188 160.464844 65.621094 161.03125 64.6875 C 161.40625 64.050781 161.867188 63.472656 162.382812 62.9375 C 163.75 61.519531 165.421875 60.808594 167.386719 60.75 C 168.632812 60.707031 169.832031 60.878906 171.015625 61.277344 C 173.046875 61.96875 174.863281 63.023438 176.488281 64.414062 C 177.125 64.957031 177.699219 65.566406 178.125 66.304688 C 178.3125 66.628906 178.359375 66.933594 178.207031 67.28125 C 178.152344 67.402344 178.140625 67.582031 178.183594 67.691406 C 178.230469 67.808594 178.367188 67.910156 178.488281 67.96875 C 178.546875 68 178.6875 67.945312 178.746094 67.886719 C 178.882812 67.75 179.015625 67.597656 179.113281 67.433594 C 180.007812 65.832031 181.167969 64.433594 182.261719 62.972656 C 182.855469 62.183594 183.574219 61.507812 184.367188 60.921875 C 186.53125 59.3125 188.9375 58.710938 191.609375 59.195312 C 192.945312 59.4375 194.175781 59.882812 195.28125 60.660156 C 197.054688 61.898438 198.164062 63.589844 198.71875 65.664062 C 198.972656 66.617188 199.113281 67.59375 199.066406 68.410156 C 199.066406 70.433594 198.628906 72.199219 198.019531 73.917969 C 197.519531 75.3125 196.871094 76.636719 196.164062 77.9375 C 194.519531 80.980469 192.527344 83.785156 190.324219 86.441406 C 187.066406 90.355469 183.378906 93.8125 179.339844 96.914062 C 179.105469 97.097656 178.683594 97.421875 178.429688 97.5625 Z M 178.390625 97.539062 " fill-opacity="1" fill-rule="nonzero"/></g><g fill="#1b2021" fill-opacity="1"><g transform="translate(117.373636, 143.9521)"><g><path d="M 8.46875 -4.890625 L 9.453125 -4.890625 L 9.453125 -1.15625 C 9.003906 -0.757812 8.46875 -0.453125 7.84375 -0.234375 C 7.21875 -0.0234375 6.5625 0.078125 5.875 0.078125 C 4.894531 0.078125 4.015625 -0.132812 3.234375 -0.5625 C 2.453125 -0.988281 1.835938 -1.578125 1.390625 -2.328125 C 0.941406 -3.085938 0.71875 -3.941406 0.71875 -4.890625 C 0.71875 -5.828125 0.941406 -6.671875 1.390625 -7.421875 C 1.835938 -8.179688 2.453125 -8.773438 3.234375 -9.203125 C 4.015625 -9.628906 4.898438 -9.84375 5.890625 -9.84375 C 6.628906 -9.84375 7.3125 -9.722656 7.9375 -9.484375 C 8.5625 -9.253906 9.085938 -8.90625 9.515625 -8.4375 L 8.875 -7.78125 C 8.101562 -8.550781 7.125 -8.9375 5.9375 -8.9375 C 5.144531 -8.9375 4.425781 -8.757812 3.78125 -8.40625 C 3.144531 -8.0625 2.644531 -7.578125 2.28125 -6.953125 C 1.925781 -6.335938 1.75 -5.648438 1.75 -4.890625 C 1.75 -4.117188 1.925781 -3.425781 2.28125 -2.8125 C 2.644531 -2.195312 3.144531 -1.710938 3.78125 -1.359375 C 4.414062 -1.015625 5.128906 -0.84375 5.921875 -0.84375 C 6.921875 -0.84375 7.769531 -1.09375 8.46875 -1.59375 Z M 8.46875 -4.890625 "/></g></g></g><g fill="#1b2021" fill-opacity="1"><g transform="translate(131.332552, 143.9521)"><g><path d="M 4.9375 -3.375 L 4.9375 0 L 3.921875 0 L 3.921875 -3.375 L 0.015625 -9.765625 L 1.109375 -9.765625 L 4.46875 -4.28125 L 7.8125 -9.765625 L 8.84375 -9.765625 Z M 4.9375 -3.375 "/></g></g></g><g fill="#1b2021" fill-opacity="1"><g transform="translate(143.365157, 143.9521)"><g><path d="M 9.75 -9.765625 L 9.75 0 L 8.90625 0 L 2.625 -7.921875 L 2.625 0 L 1.59375 0 L 1.59375 -9.765625 L 2.4375 -9.765625 L 8.734375 -1.84375 L 8.734375 -9.765625 Z M 9.75 -9.765625 "/></g></g></g><g fill="#1b2021" fill-opacity="1"><g transform="translate(157.882431, 143.9521)"><g><path d="M 8.5 -0.890625 L 8.5 0 L 1.59375 0 L 1.59375 -9.765625 L 8.28125 -9.765625 L 8.28125 -8.875 L 2.625 -8.875 L 2.625 -5.40625 L 7.671875 -5.40625 L 7.671875 -4.515625 L 2.625 -4.515625 L 2.625 -0.890625 Z M 8.5 -0.890625 "/></g></g></g><g fill="#1b2021" fill-opacity="1"><g transform="translate(170.389633, 143.9521)"><g><path d="M 4.625 -4.59375 L 2.625 -2.5625 L 2.625 0 L 1.59375 0 L 1.59375 -9.765625 L 2.625 -9.765625 L 2.625 -3.859375 L 8.359375 -9.765625 L 9.546875 -9.765625 L 5.3125 -5.34375 L 9.84375 0 L 8.609375 0 Z M 4.625 -4.59375 "/></g></g></g><g fill="#1b2021" fill-opacity="1"><g transform="translate(183.483105, 143.9521)"><g><path d="M 5.859375 0.078125 C 4.890625 0.078125 4.007812 -0.132812 3.21875 -0.5625 C 2.4375 -1 1.820312 -1.59375 1.375 -2.34375 C 0.9375 -3.09375 0.71875 -3.941406 0.71875 -4.890625 C 0.71875 -5.828125 0.9375 -6.671875 1.375 -7.421875 C 1.820312 -8.171875 2.4375 -8.757812 3.21875 -9.1875 C 4.007812 -9.625 4.890625 -9.84375 5.859375 -9.84375 C 6.828125 -9.84375 7.695312 -9.628906 8.46875 -9.203125 C 9.25 -8.773438 9.863281 -8.179688 10.3125 -7.421875 C 10.757812 -6.671875 10.984375 -5.828125 10.984375 -4.890625 C 10.984375 -3.941406 10.757812 -3.085938 10.3125 -2.328125 C 9.863281 -1.578125 9.25 -0.988281 8.46875 -0.5625 C 7.695312 -0.132812 6.828125 0.078125 5.859375 0.078125 Z M 5.859375 -0.84375 C 6.628906 -0.84375 7.328125 -1.015625 7.953125 -1.359375 C 8.578125 -1.710938 9.066406 -2.195312 9.421875 -2.8125 C 9.773438 -3.425781 9.953125 -4.117188 9.953125 -4.890625 C 9.953125 -5.648438 9.773438 -6.335938 9.421875 -6.953125 C 9.066406 -7.578125 8.578125 -8.0625 7.953125 -8.40625 C 7.328125 -8.757812 6.628906 -8.9375 5.859375 -8.9375 C 5.085938 -8.9375 4.382812 -8.757812 3.75 -8.40625 C 3.125 -8.0625 2.632812 -7.578125 2.28125 -6.953125 C 1.925781 -6.335938 1.75 -5.648438 1.75 -4.890625 C 1.75 -4.117188 1.925781 -3.425781 2.28125 -2.8125 C 2.632812 -2.195312 3.125 -1.710938 3.75 -1.359375 C 4.382812 -1.015625 5.085938 -0.84375 5.859375 -0.84375 Z M 5.859375 -0.84375 "/></g></g></g><g fill="#1b2021" fill-opacity="1"><g transform="translate(198.363306, 143.9521)"><g><path d="M 1.59375 -9.765625 L 2.625 -9.765625 L 2.625 -0.890625 L 8.09375 -0.890625 L 8.09375 0 L 1.59375 0 Z M 1.59375 -9.765625 "/></g></g></g><g fill="#1b2021" fill-opacity="1"><g transform="translate(209.753805, 143.9521)"><g><path d="M 5.859375 0.078125 C 4.890625 0.078125 4.007812 -0.132812 3.21875 -0.5625 C 2.4375 -1 1.820312 -1.59375 1.375 -2.34375 C 0.9375 -3.09375 0.71875 -3.941406 0.71875 -4.890625 C 0.71875 -5.828125 0.9375 -6.671875 1.375 -7.421875 C 1.820312 -8.171875 2.4375 -8.757812 3.21875 -9.1875 C 4.007812 -9.625 4.890625 -9.84375 5.859375 -9.84375 C 6.828125 -9.84375 7.695312 -9.628906 8.46875 -9.203125 C 9.25 -8.773438 9.863281 -8.179688 10.3125 -7.421875 C 10.757812 -6.671875 10.984375 -5.828125 10.984375 -4.890625 C 10.984375 -3.941406 10.757812 -3.085938 10.3125 -2.328125 C 9.863281 -1.578125 9.25 -0.988281 8.46875 -0.5625 C 7.695312 -0.132812 6.828125 0.078125 5.859375 0.078125 Z M 5.859375 -0.84375 C 6.628906 -0.84375 7.328125 -1.015625 7.953125 -1.359375 C 8.578125 -1.710938 9.066406 -2.195312 9.421875 -2.8125 C 9.773438 -3.425781 9.953125 -4.117188 9.953125 -4.890625 C 9.953125 -5.648438 9.773438 -6.335938 9.421875 -6.953125 C 9.066406 -7.578125 8.578125 -8.0625 7.953125 -8.40625 C 7.328125 -8.757812 6.628906 -8.9375 5.859375 -8.9375 C 5.085938 -8.9375 4.382812 -8.757812 3.75 -8.40625 C 3.125 -8.0625 2.632812 -7.578125 2.28125 -6.953125 C 1.925781 -6.335938 1.75 -5.648438 1.75 -4.890625 C 1.75 -4.117188 1.925781 -3.425781 2.28125 -2.8125 C 2.632812 -2.195312 3.125 -1.710938 3.75 -1.359375 C 4.382812 -1.015625 5.085938 -0.84375 5.859375 -0.84375 Z M 5.859375 -0.84375 "/></g></g></g><g fill="#1b2021" fill-opacity="1"><g transform="translate(224.63401, 143.9521)"><g><path d="M 8.46875 -4.890625 L 9.453125 -4.890625 L 9.453125 -1.15625 C 9.003906 -0.757812 8.46875 -0.453125 7.84375 -0.234375 C 7.21875 -0.0234375 6.5625 0.078125 5.875 0.078125 C 4.894531 0.078125 4.015625 -0.132812 3.234375 -0.5625 C 2.453125 -0.988281 1.835938 -1.578125 1.390625 -2.328125 C 0.941406 -3.085938 0.71875 -3.941406 0.71875 -4.890625 C 0.71875 -5.828125 0.941406 -6.671875 1.390625 -7.421875 C 1.835938 -8.179688 2.453125 -8.773438 3.234375 -9.203125 C 4.015625 -9.628906 4.898438 -9.84375 5.890625 -9.84375 C 6.628906 -9.84375 7.3125 -9.722656 7.9375 -9.484375 C 8.5625 -9.253906 9.085938 -8.90625 9.515625 -8.4375 L 8.875 -7.78125 C 8.101562 -8.550781 7.125 -8.9375 5.9375 -8.9375 C 5.144531 -8.9375 4.425781 -8.757812 3.78125 -8.40625 C 3.144531 -8.0625 2.644531 -7.578125 2.28125 -6.953125 C 1.925781 -6.335938 1.75 -5.648438 1.75 -4.890625 C 1.75 -4.117188 1.925781 -3.425781 2.28125 -2.8125 C 2.644531 -2.195312 3.144531 -1.710938 3.78125 -1.359375 C 4.414062 -1.015625 5.128906 -0.84375 5.921875 -0.84375 C 6.921875 -0.84375 7.769531 -1.09375 8.46875 -1.59375 Z M 8.46875 -4.890625 "/></g></g></g><g fill="#1b2021" fill-opacity="1"><g transform="translate(238.592921, 143.9521)"><g><path d="M 1.59375 -9.765625 L 2.625 -9.765625 L 2.625 0 L 1.59375 0 Z M 1.59375 -9.765625 "/></g></g></g><g fill="#1b2021" fill-opacity="1"><g transform="translate(245.977237, 143.9521)"><g><path d="M 8.5 -0.890625 L 8.5 0 L 1.59375 0 L 1.59375 -9.765625 L 8.28125 -9.765625 L 8.28125 -8.875 L 2.625 -8.875 L 2.625 -5.40625 L 7.671875 -5.40625 L 7.671875 -4.515625 L 2.625 -4.515625 L 2.625 -0.890625 Z M 8.5 -0.890625 "/></g></g></g><g fill="#1b2021" fill-opacity="1"><g transform="translate(258.48897, 143.9521)"><g/></g></g><g fill="#1b2021" fill-opacity="1"><g transform="translate(85.157391, 163.145531)"><g><path d="M 11.734375 -9.765625 L 11.734375 0 L 10.75 0 L 10.75 -7.8125 L 6.90625 -1.234375 L 6.421875 -1.234375 L 2.578125 -7.765625 L 2.578125 0 L 1.59375 0 L 1.59375 -9.765625 L 2.4375 -9.765625 L 6.6875 -2.53125 L 10.890625 -9.765625 Z M 11.734375 -9.765625 "/></g></g></g><g fill="#1b2021" fill-opacity="1"><g transform="translate(101.656817, 163.145531)"><g><path d="M 5.53125 0.078125 C 4.257812 0.078125 3.269531 -0.28125 2.5625 -1 C 1.851562 -1.726562 1.5 -2.785156 1.5 -4.171875 L 1.5 -9.765625 L 2.546875 -9.765625 L 2.546875 -4.21875 C 2.546875 -3.082031 2.800781 -2.234375 3.3125 -1.671875 C 3.820312 -1.117188 4.5625 -0.84375 5.53125 -0.84375 C 6.5 -0.84375 7.238281 -1.117188 7.75 -1.671875 C 8.269531 -2.234375 8.53125 -3.082031 8.53125 -4.21875 L 8.53125 -9.765625 L 9.53125 -9.765625 L 9.53125 -4.171875 C 9.53125 -2.785156 9.175781 -1.726562 8.46875 -1 C 7.769531 -0.28125 6.789062 0.078125 5.53125 0.078125 Z M 5.53125 0.078125 "/></g></g></g><g fill="#1b2021" fill-opacity="1"><g transform="translate(115.880956, 163.145531)"><g><path d="M 1.59375 -9.765625 L 5.5625 -9.765625 C 6.59375 -9.765625 7.503906 -9.554688 8.296875 -9.140625 C 9.085938 -8.734375 9.703125 -8.160156 10.140625 -7.421875 C 10.578125 -6.679688 10.796875 -5.835938 10.796875 -4.890625 C 10.796875 -3.929688 10.578125 -3.082031 10.140625 -2.34375 C 9.703125 -1.601562 9.085938 -1.023438 8.296875 -0.609375 C 7.503906 -0.203125 6.59375 0 5.5625 0 L 1.59375 0 Z M 5.515625 -0.890625 C 6.367188 -0.890625 7.113281 -1.054688 7.75 -1.390625 C 8.394531 -1.734375 8.894531 -2.207031 9.25 -2.8125 C 9.601562 -3.414062 9.78125 -4.109375 9.78125 -4.890625 C 9.78125 -5.671875 9.601562 -6.359375 9.25 -6.953125 C 8.894531 -7.554688 8.394531 -8.023438 7.75 -8.359375 C 7.113281 -8.703125 6.367188 -8.875 5.515625 -8.875 L 2.625 -8.875 L 2.625 -0.890625 Z M 5.515625 -0.890625 "/></g></g></g><g fill="#1b2021" fill-opacity="1"><g transform="translate(130.579694, 163.145531)"><g><path d="M 8.265625 0 L 6.03125 -3.140625 C 5.78125 -3.109375 5.519531 -3.09375 5.25 -3.09375 L 2.625 -3.09375 L 2.625 0 L 1.59375 0 L 1.59375 -9.765625 L 5.25 -9.765625 C 6.488281 -9.765625 7.460938 -9.46875 8.171875 -8.875 C 8.878906 -8.28125 9.234375 -7.460938 9.234375 -6.421875 C 9.234375 -5.660156 9.039062 -5.015625 8.65625 -4.484375 C 8.269531 -3.960938 7.71875 -3.582031 7 -3.34375 L 9.390625 0 Z M 5.21875 -3.984375 C 6.1875 -3.984375 6.925781 -4.195312 7.4375 -4.625 C 7.945312 -5.050781 8.203125 -5.648438 8.203125 -6.421875 C 8.203125 -7.210938 7.945312 -7.816406 7.4375 -8.234375 C 6.925781 -8.660156 6.1875 -8.875 5.21875 -8.875 L 2.625 -8.875 L 2.625 -3.984375 Z M 5.21875 -3.984375 "/></g></g></g><g fill="#1b2021" fill-opacity="1"><g transform="translate(143.840668, 163.145531)"><g><path d="M 1.484375 0.0625 C 1.273438 0.0625 1.097656 -0.0078125 0.953125 -0.15625 C 0.804688 -0.300781 0.734375 -0.484375 0.734375 -0.703125 C 0.734375 -0.910156 0.804688 -1.085938 0.953125 -1.234375 C 1.097656 -1.378906 1.273438 -1.453125 1.484375 -1.453125 C 1.679688 -1.453125 1.851562 -1.378906 2 -1.234375 C 2.15625 -1.085938 2.234375 -0.910156 2.234375 -0.703125 C 2.234375 -0.484375 2.15625 -0.300781 2 -0.15625 C 1.851562 -0.0078125 1.679688 0.0625 1.484375 0.0625 Z M 1.484375 0.0625 "/></g></g></g><g fill="#1b2021" fill-opacity="1"><g transform="translate(149.968689, 163.145531)"><g/></g></g><g fill="#1b2021" fill-opacity="1"><g transform="translate(156.79465, 163.145531)"><g><path d="M 2.640625 0.078125 C 2.078125 0.078125 1.554688 -0.0390625 1.078125 -0.28125 C 0.609375 -0.519531 0.226562 -0.863281 -0.0625 -1.3125 L 0.546875 -2.015625 C 1.085938 -1.210938 1.789062 -0.8125 2.65625 -0.8125 C 3.863281 -0.8125 4.46875 -1.523438 4.46875 -2.953125 L 4.46875 -8.875 L 0.890625 -8.875 L 0.890625 -9.765625 L 5.484375 -9.765625 L 5.484375 -3 C 5.484375 -1.976562 5.242188 -1.207031 4.765625 -0.6875 C 4.285156 -0.175781 3.578125 0.078125 2.640625 0.078125 Z M 2.640625 0.078125 "/></g></g></g><g fill="#1b2021" fill-opacity="1"><g transform="translate(166.95677, 163.145531)"><g><path d="M 7.71875 -2.609375 L 2.28125 -2.609375 L 1.109375 0 L 0.03125 0 L 4.5 -9.765625 L 5.515625 -9.765625 L 9.96875 0 L 8.890625 0 Z M 7.34375 -3.453125 L 5 -8.6875 L 2.65625 -3.453125 Z M 7.34375 -3.453125 "/></g></g></g><g fill="#1b2021" fill-opacity="1"><g transform="translate(180.133989, 163.145531)"><g><path d="M 9.75 -9.765625 L 9.75 0 L 8.90625 0 L 2.625 -7.921875 L 2.625 0 L 1.59375 0 L 1.59375 -9.765625 L 2.4375 -9.765625 L 8.734375 -1.84375 L 8.734375 -9.765625 Z M 9.75 -9.765625 "/></g></g></g><g fill="#1b2021" fill-opacity="1"><g transform="translate(194.651268, 163.145531)"><g><path d="M 7.71875 -2.609375 L 2.28125 -2.609375 L 1.109375 0 L 0.03125 0 L 4.5 -9.765625 L 5.515625 -9.765625 L 9.96875 0 L 8.890625 0 Z M 7.34375 -3.453125 L 5 -8.6875 L 2.65625 -3.453125 Z M 7.34375 -3.453125 "/></g></g></g><g fill="#1b2021" fill-opacity="1"><g transform="translate(207.828486, 163.145531)"><g/></g></g><g fill="#1b2021" fill-opacity="1"><g transform="translate(214.654452, 163.145531)"><g><path d="M 3.484375 -8.875 L 0.0625 -8.875 L 0.0625 -9.765625 L 7.953125 -9.765625 L 7.953125 -8.875 L 4.515625 -8.875 L 4.515625 0 L 3.484375 0 Z M 3.484375 -8.875 "/></g></g></g><g fill="#1b2021" fill-opacity="1"><g transform="translate(225.835568, 163.145531)"><g><path d="M 5.53125 0.078125 C 4.257812 0.078125 3.269531 -0.28125 2.5625 -1 C 1.851562 -1.726562 1.5 -2.785156 1.5 -4.171875 L 1.5 -9.765625 L 2.546875 -9.765625 L 2.546875 -4.21875 C 2.546875 -3.082031 2.800781 -2.234375 3.3125 -1.671875 C 3.820312 -1.117188 4.5625 -0.84375 5.53125 -0.84375 C 6.5 -0.84375 7.238281 -1.117188 7.75 -1.671875 C 8.269531 -2.234375 8.53125 -3.082031 8.53125 -4.21875 L 8.53125 -9.765625 L 9.53125 -9.765625 L 9.53125 -4.171875 C 9.53125 -2.785156 9.175781 -1.726562 8.46875 -1 C 7.769531 -0.28125 6.789062 0.078125 5.53125 0.078125 Z M 5.515625 -10.734375 C 5.097656 -10.734375 4.75 -10.875 4.46875 -11.15625 C 4.195312 -11.4375 4.0625 -11.769531 4.0625 -12.15625 C 4.0625 -12.5625 4.203125 -12.90625 4.484375 -13.1875 C 4.765625 -13.476562 5.109375 -13.625 5.515625 -13.625 C 5.921875 -13.625 6.265625 -13.476562 6.546875 -13.1875 C 6.835938 -12.90625 6.984375 -12.5625 6.984375 -12.15625 C 6.984375 -11.769531 6.84375 -11.4375 6.5625 -11.15625 C 6.28125 -10.875 5.929688 -10.734375 5.515625 -10.734375 Z M 5.515625 -11.234375 C 5.796875 -11.234375 6.023438 -11.320312 6.203125 -11.5 C 6.378906 -11.675781 6.46875 -11.894531 6.46875 -12.15625 C 6.46875 -12.425781 6.375 -12.65625 6.1875 -12.84375 C 6.007812 -13.039062 5.785156 -13.140625 5.515625 -13.140625 C 5.242188 -13.140625 5.019531 -13.046875 4.84375 -12.859375 C 4.664062 -12.671875 4.578125 -12.4375 4.578125 -12.15625 C 4.578125 -11.894531 4.660156 -11.675781 4.828125 -11.5 C 5.003906 -11.320312 5.234375 -11.234375 5.515625 -11.234375 Z M 5.515625 -11.234375 "/></g></g></g><g fill="#1b2021" fill-opacity="1"><g transform="translate(240.059712, 163.145531)"><g><path d="M 11.734375 -9.765625 L 11.734375 0 L 10.75 0 L 10.75 -7.8125 L 6.90625 -1.234375 L 6.421875 -1.234375 L 2.578125 -7.765625 L 2.578125 0 L 1.59375 0 L 1.59375 -9.765625 L 2.4375 -9.765625 L 6.6875 -2.53125 L 10.890625 -9.765625 Z M 11.734375 -9.765625 "/></g></g></g><g fill="#1b2021" fill-opacity="1"><g transform="translate(256.559143, 163.145531)"><g><path d="M 5.859375 0.078125 C 4.890625 0.078125 4.007812 -0.132812 3.21875 -0.5625 C 2.4375 -1 1.820312 -1.59375 1.375 -2.34375 C 0.9375 -3.09375 0.71875 -3.941406 0.71875 -4.890625 C 0.71875 -5.828125 0.9375 -6.671875 1.375 -7.421875 C 1.820312 -8.171875 2.4375 -8.757812 3.21875 -9.1875 C 4.007812 -9.625 4.890625 -9.84375 5.859375 -9.84375 C 6.828125 -9.84375 7.695312 -9.628906 8.46875 -9.203125 C 9.25 -8.773438 9.863281 -8.179688 10.3125 -7.421875 C 10.757812 -6.671875 10.984375 -5.828125 10.984375 -4.890625 C 10.984375 -3.941406 10.757812 -3.085938 10.3125 -2.328125 C 9.863281 -1.578125 9.25 -0.988281 8.46875 -0.5625 C 7.695312 -0.132812 6.828125 0.078125 5.859375 0.078125 Z M 5.859375 -0.84375 C 6.628906 -0.84375 7.328125 -1.015625 7.953125 -1.359375 C 8.578125 -1.710938 9.066406 -2.195312 9.421875 -2.8125 C 9.773438 -3.425781 9.953125 -4.117188 9.953125 -4.890625 C 9.953125 -5.648438 9.773438 -6.335938 9.421875 -6.953125 C 9.066406 -7.578125 8.578125 -8.0625 7.953125 -8.40625 C 7.328125 -8.757812 6.628906 -8.9375 5.859375 -8.9375 C 5.085938 -8.9375 4.382812 -8.757812 3.75 -8.40625 C 3.125 -8.0625 2.632812 -7.578125 2.28125 -6.953125 C 1.925781 -6.335938 1.75 -5.648438 1.75 -4.890625 C 1.75 -4.117188 1.925781 -3.425781 2.28125 -2.8125 C 2.632812 -2.195312 3.125 -1.710938 3.75 -1.359375 C 4.382812 -1.015625 5.085938 -0.84375 5.859375 -0.84375 Z M 5.859375 -0.84375 "/></g></g></g><g fill="#1b2021" fill-opacity="1"><g transform="translate(271.439347, 163.145531)"><g><path d="M 9.71875 -9.765625 L 5.390625 0 L 4.375 0 L 0.046875 -9.765625 L 1.15625 -9.765625 L 4.890625 -1.28125 L 8.671875 -9.765625 Z M 9.71875 -9.765625 "/></g></g></g><g fill="#1b2021" fill-opacity="1"><g transform="translate(284.351352, 163.145531)"><g><path d="M 7.71875 -2.609375 L 2.28125 -2.609375 L 1.109375 0 L 0.03125 0 L 4.5 -9.765625 L 5.515625 -9.765625 L 9.96875 0 L 8.890625 0 Z M 7.34375 -3.453125 L 5 -8.6875 L 2.65625 -3.453125 Z M 6 -12.296875 L 7.328125 -12.296875 L 5.078125 -10.5625 L 4.09375 -10.5625 Z M 6 -12.296875 "/></g></g></g><g fill="#1b2021" fill-opacity="1"><g transform="translate(91.168235, 113.33842)"><g><path d="M 14.015625 16.25 C 12.816406 16.25 12.28125 15.585938 12.40625 14.265625 C 12.488281 13.484375 12.859375 12.53125 13.515625 11.40625 C 14.179688 10.289062 14.976562 9.132812 15.90625 7.9375 C 16.84375 6.738281 17.765625 5.632812 18.671875 4.625 C 19.578125 3.613281 20.300781 2.816406 20.84375 2.234375 C 21.539062 1.410156 22.015625 0.539062 22.265625 -0.375 C 23.054688 -3.3125 23.769531 -6.234375 24.40625 -9.140625 C 25.050781 -12.054688 25.660156 -15.003906 26.234375 -17.984375 C 26.273438 -18.191406 26.304688 -18.421875 26.328125 -18.671875 C 26.347656 -18.921875 26.316406 -19.148438 26.234375 -19.359375 C 25.867188 -19.359375 25.625 -19.253906 25.5 -19.046875 C 25.414062 -18.921875 25.332031 -18.796875 25.25 -18.671875 C 25.164062 -18.546875 25.082031 -18.441406 25 -18.359375 L 18.671875 -10.921875 C 18.003906 -10.128906 17.0625 -9.082031 15.84375 -7.78125 C 14.625 -6.476562 13.300781 -5.175781 11.875 -3.875 C 10.445312 -2.570312 9.03125 -1.441406 7.625 -0.484375 C 6.21875 0.460938 5 0.992188 3.96875 1.109375 C 3.84375 1.109375 3.757812 1.128906 3.71875 1.171875 C 3.675781 1.171875 3.632812 1.171875 3.59375 1.171875 C 3.550781 1.171875 3.507812 1.171875 3.46875 1.171875 C 2.3125 1.171875 1.460938 0.675781 0.921875 -0.3125 C 0.390625 -1.300781 0.0820312 -2.351562 0 -3.46875 C -0.0390625 -4.050781 -0.0078125 -4.617188 0.09375 -5.171875 C 0.195312 -5.734375 0.3125 -6.304688 0.4375 -6.890625 C 1.34375 -10.648438 2.570312 -14.234375 4.125 -17.640625 C 5.675781 -21.054688 7.671875 -24.273438 10.109375 -27.296875 C 10.972656 -28.410156 11.992188 -29.523438 13.171875 -30.640625 C 14.359375 -31.753906 15.625 -32.679688 16.96875 -33.421875 C 18.3125 -34.171875 19.6875 -34.546875 21.09375 -34.546875 C 22.789062 -34.546875 23.882812 -33.71875 24.375 -32.0625 C 24.582031 -31.445312 24.6875 -30.847656 24.6875 -30.265625 C 24.6875 -29.648438 24.625 -29.050781 24.5 -28.46875 C 24.375 -27.8125 24.101562 -26.910156 23.6875 -25.765625 C 23.28125 -24.628906 22.804688 -23.453125 22.265625 -22.234375 C 21.734375 -21.015625 21.175781 -19.9375 20.59375 -19 C 20.007812 -18.070312 19.492188 -17.507812 19.046875 -17.3125 L 18.921875 -17.3125 C 18.671875 -17.3125 18.523438 -17.332031 18.484375 -17.375 C 18.316406 -17.5 18.253906 -17.679688 18.296875 -17.921875 C 18.335938 -18.003906 18.390625 -18.085938 18.453125 -18.171875 C 18.515625 -18.253906 18.566406 -18.335938 18.609375 -18.421875 C 18.773438 -18.671875 18.878906 -18.859375 18.921875 -18.984375 C 19.492188 -19.972656 20.03125 -20.972656 20.53125 -21.984375 C 21.03125 -23.003906 21.503906 -24.050781 21.953125 -25.125 C 22.285156 -26.03125 22.554688 -26.90625 22.765625 -27.75 C 22.972656 -28.601562 23.078125 -29.503906 23.078125 -30.453125 C 22.953125 -32.109375 22.269531 -32.9375 21.03125 -32.9375 C 20.082031 -32.9375 19.128906 -32.695312 18.171875 -32.21875 C 17.222656 -31.75 16.394531 -31.222656 15.6875 -30.640625 C 13.414062 -28.859375 11.367188 -26.613281 9.546875 -23.90625 C 7.734375 -21.195312 6.1875 -18.320312 4.90625 -15.28125 C 3.625 -12.25 2.648438 -9.328125 1.984375 -6.515625 C 1.898438 -6.179688 1.835938 -5.847656 1.796875 -5.515625 C 1.753906 -5.191406 1.710938 -4.863281 1.671875 -4.53125 C 1.585938 -3.820312 1.609375 -3.285156 1.734375 -2.921875 C 1.984375 -1.304688 2.601562 -0.5 3.59375 -0.5 C 4.175781 -0.5 4.878906 -0.722656 5.703125 -1.171875 C 6.535156 -1.628906 7.382812 -2.195312 8.25 -2.875 C 9.113281 -3.5625 9.898438 -4.238281 10.609375 -4.90625 C 11.265625 -5.519531 12.003906 -6.238281 12.828125 -7.0625 C 13.660156 -7.894531 14.4375 -8.691406 15.15625 -9.453125 C 15.882812 -10.222656 16.394531 -10.796875 16.6875 -11.171875 C 17.507812 -12.117188 18.320312 -13.054688 19.125 -13.984375 C 19.9375 -14.921875 20.738281 -15.863281 21.53125 -16.8125 C 22.3125 -17.757812 23.101562 -18.707031 23.90625 -19.65625 C 24.71875 -20.613281 25.515625 -21.546875 26.296875 -22.453125 C 26.671875 -22.953125 27.066406 -23.40625 27.484375 -23.8125 C 27.691406 -23.9375 27.851562 -24 27.96875 -24 C 27.96875 -24 28.132812 -23.957031 28.46875 -23.875 C 28.675781 -23.800781 28.78125 -23.578125 28.78125 -23.203125 C 28.78125 -23.035156 28.769531 -22.878906 28.75 -22.734375 C 28.726562 -22.585938 28.695312 -22.410156 28.65625 -22.203125 C 28.039062 -18.984375 27.421875 -15.800781 26.796875 -12.65625 C 26.171875 -9.507812 25.46875 -6.34375 24.6875 -3.15625 C 24.476562 -2.789062 24.457031 -2.460938 24.625 -2.171875 L 24.8125 -2.171875 C 24.976562 -2.171875 25.113281 -2.222656 25.21875 -2.328125 C 25.320312 -2.429688 25.414062 -2.523438 25.5 -2.609375 C 28.925781 -6.117188 32.5 -9.507812 36.21875 -12.78125 C 36.257812 -12.820312 36.3125 -12.875 36.375 -12.9375 C 36.4375 -13 36.488281 -13.050781 36.53125 -13.09375 C 36.65625 -13.21875 36.757812 -13.300781 36.84375 -13.34375 C 37.050781 -13.457031 37.238281 -13.515625 37.40625 -13.515625 C 37.613281 -13.515625 37.800781 -13.457031 37.96875 -13.34375 C 38.289062 -13.050781 38.289062 -12.675781 37.96875 -12.21875 L 37.40625 -11.65625 C 37.195312 -11.457031 36.976562 -11.253906 36.75 -11.046875 C 36.519531 -10.835938 36.285156 -10.628906 36.046875 -10.421875 C 34.054688 -8.679688 32.117188 -6.890625 30.234375 -5.046875 C 28.359375 -3.210938 26.488281 -1.34375 24.625 0.5625 C 23.757812 1.425781 23.117188 2.4375 22.703125 3.59375 C 22.410156 4.59375 21.992188 5.765625 21.453125 7.109375 C 20.921875 8.453125 20.300781 9.785156 19.59375 11.109375 C 18.894531 12.429688 18.109375 13.566406 17.234375 14.515625 C 16.367188 15.460938 15.441406 16.039062 14.453125 16.25 Z M 14.640625 14.453125 C 15.296875 14.160156 15.914062 13.664062 16.5 12.96875 C 17.207031 12.050781 17.816406 11.085938 18.328125 10.078125 C 18.847656 9.066406 19.3125 8.023438 19.71875 6.953125 C 19.925781 6.492188 19.890625 6.140625 19.609375 5.890625 C 19.484375 6.222656 19.296875 6.515625 19.046875 6.765625 C 18.796875 6.929688 18.566406 7.195312 18.359375 7.5625 C 18.066406 7.894531 17.796875 8.25 17.546875 8.625 C 17.304688 9 17.039062 9.347656 16.75 9.671875 C 16.457031 10.003906 16.1875 10.347656 15.9375 10.703125 C 15.6875 11.054688 15.441406 11.394531 15.203125 11.71875 C 14.953125 12.050781 14.722656 12.414062 14.515625 12.8125 C 14.304688 13.207031 14.179688 13.628906 14.140625 14.078125 C 14.140625 14.203125 14.179688 14.304688 14.265625 14.390625 C 14.390625 14.515625 14.515625 14.535156 14.640625 14.453125 Z M 14.640625 14.453125 "/></g></g></g><g fill="#1b2021" fill-opacity="1"><g transform="translate(243.704822, 108.810551)"><g><path d="M 6.203125 5.15625 C 5.867188 5.15625 5.679688 5.007812 5.640625 4.71875 C 5.554688 4.507812 5.523438 4.300781 5.546875 4.09375 C 5.566406 3.882812 5.597656 3.675781 5.640625 3.46875 L 7.140625 -5.515625 C 7.796875 -9.410156 8.515625 -13.269531 9.296875 -17.09375 C 10.085938 -20.914062 10.957031 -24.75 11.90625 -28.59375 C 11.945312 -28.757812 11.988281 -28.9375 12.03125 -29.125 C 12.070312 -29.3125 12.113281 -29.53125 12.15625 -29.78125 C 12.28125 -30.226562 12.113281 -30.453125 11.65625 -30.453125 L 11.46875 -30.453125 C 10.726562 -30.328125 9.972656 -30.191406 9.203125 -30.046875 C 8.441406 -29.910156 7.691406 -29.738281 6.953125 -29.53125 C 6.035156 -29.363281 5.144531 -29.195312 4.28125 -29.03125 C 3.414062 -28.863281 2.546875 -28.675781 1.671875 -28.46875 C 0.804688 -28.257812 -0.0546875 -28.0625 -0.921875 -27.875 C -1.796875 -27.695312 -2.6875 -27.503906 -3.59375 -27.296875 C -3.675781 -27.253906 -3.769531 -27.234375 -3.875 -27.234375 C -3.976562 -27.234375 -4.070312 -27.210938 -4.15625 -27.171875 C -4.28125 -27.128906 -4.46875 -27.109375 -4.71875 -27.109375 C -4.882812 -27.109375 -5.066406 -27.140625 -5.265625 -27.203125 C -5.472656 -27.265625 -5.578125 -27.398438 -5.578125 -27.609375 C -5.535156 -27.648438 -5.515625 -27.753906 -5.515625 -27.921875 C -5.515625 -27.992188 -5.472656 -28.070312 -5.390625 -28.15625 C -5.265625 -28.238281 -5.140625 -28.320312 -5.015625 -28.40625 C -4.898438 -28.488281 -4.757812 -28.550781 -4.59375 -28.59375 C -4.425781 -28.632812 -4.269531 -28.664062 -4.125 -28.6875 C -3.976562 -28.707031 -3.820312 -28.738281 -3.65625 -28.78125 L 5.828125 -30.828125 C 6.773438 -31.035156 7.734375 -31.242188 8.703125 -31.453125 C 9.679688 -31.660156 10.644531 -31.847656 11.59375 -32.015625 C 12.007812 -32.085938 12.34375 -32.21875 12.59375 -32.40625 C 12.84375 -32.59375 13.007812 -32.914062 13.09375 -33.375 C 13.175781 -33.707031 13.253906 -34.035156 13.328125 -34.359375 C 13.410156 -34.691406 13.492188 -35.023438 13.578125 -35.359375 C 13.703125 -35.816406 13.992188 -36.046875 14.453125 -36.046875 C 14.828125 -35.878906 14.972656 -35.523438 14.890625 -34.984375 L 14.640625 -33.625 C 14.554688 -33.289062 14.566406 -33.0625 14.671875 -32.9375 C 14.773438 -32.8125 15.035156 -32.75 15.453125 -32.75 L 15.6875 -32.75 C 15.894531 -32.789062 16.101562 -32.832031 16.3125 -32.875 C 16.519531 -32.914062 16.75 -32.957031 17 -33 C 17.25 -33.039062 17.492188 -33.070312 17.734375 -33.09375 C 17.984375 -33.113281 18.253906 -33.144531 18.546875 -33.1875 C 19.617188 -33.269531 20.679688 -33.375 21.734375 -33.5 C 22.796875 -33.625 23.863281 -33.75 24.9375 -33.875 C 26.007812 -33.957031 27.070312 -34.054688 28.125 -34.171875 C 29.1875 -34.296875 30.234375 -34.398438 31.265625 -34.484375 L 32.6875 -34.484375 C 33.019531 -34.441406 33.207031 -34.257812 33.25 -33.9375 C 33.289062 -33.5625 33.144531 -33.289062 32.8125 -33.125 L 32.015625 -32.9375 C 31.304688 -32.894531 30.578125 -32.84375 29.828125 -32.78125 C 29.085938 -32.71875 28.347656 -32.644531 27.609375 -32.5625 C 26.859375 -32.519531 26.109375 -32.445312 25.359375 -32.34375 C 24.617188 -32.238281 23.878906 -32.144531 23.140625 -32.0625 C 22.472656 -32.03125 21.816406 -31.972656 21.171875 -31.890625 C 20.535156 -31.804688 19.890625 -31.722656 19.234375 -31.640625 C 18.566406 -31.554688 17.898438 -31.472656 17.234375 -31.390625 C 16.578125 -31.304688 15.921875 -31.222656 15.265625 -31.140625 C 14.390625 -31.054688 13.867188 -30.5625 13.703125 -29.65625 C 12.378906 -24.113281 11.191406 -18.59375 10.140625 -13.09375 C 9.085938 -7.59375 8.125 -2.03125 7.25 3.59375 C 7.21875 3.84375 7.179688 4.082031 7.140625 4.3125 C 7.097656 4.539062 6.972656 4.738281 6.765625 4.90625 C 6.597656 5.070312 6.410156 5.15625 6.203125 5.15625 Z M 6.203125 5.15625 "/></g></g></g></svg>