<svg xmlns="http://www.w3.org/2000/svg" xmlns:xlink="http://www.w3.org/1999/xlink" width="500" zoomAndPan="magnify" viewBox="0 0 375 149.999998" height="200" preserveAspectRatio="xMidYMid meet" version="1.0"><defs><g/><clipPath id="b86962b752"><path d="M 63 7 L 83 7 L 83 67 L 63 67 Z M 63 7 " clip-rule="nonzero"/></clipPath><clipPath id="b977b304c7"><path d="M 45.109375 21.257812 L 76.097656 4.457031 L 101.121094 50.609375 L 70.132812 67.410156 Z M 45.109375 21.257812 " clip-rule="nonzero"/></clipPath><clipPath id="fb23e27f81"><path d="M 45.109375 21.257812 L 76.097656 4.457031 L 101.121094 50.609375 L 70.132812 67.410156 Z M 45.109375 21.257812 " clip-rule="nonzero"/></clipPath><clipPath id="6b5d9225e6"><path d="M 22 34 L 64 34 L 64 70 L 22 70 Z M 22 34 " clip-rule="nonzero"/></clipPath><clipPath id="f454fd6728"><path d="M 16.683594 60.957031 L 23.671875 29.472656 L 70.53125 39.875 L 63.542969 71.359375 Z M 16.683594 60.957031 " clip-rule="nonzero"/></clipPath><clipPath id="4453b23f07"><path d="M 16.683594 60.957031 L 23.671875 29.472656 L 70.53125 39.875 L 63.542969 71.359375 Z M 16.683594 60.957031 " clip-rule="nonzero"/></clipPath><clipPath id="56b8cf0c3d"><path d="M 4 67 L 54 67 L 54 84 L 4 84 Z M 4 67 " clip-rule="nonzero"/></clipPath><clipPath id="4590dfc2eb"><path d="M 16.53125 99.601562 L 1.90625 74.273438 L 40.230469 52.144531 L 54.855469 77.476562 Z M 16.53125 99.601562 " clip-rule="nonzero"/></clipPath><clipPath id="943752d712"><path d="M 16.53125 99.601562 L 1.90625 74.273438 L 40.230469 52.144531 L 54.855469 77.476562 Z M 16.53125 99.601562 " clip-rule="nonzero"/></clipPath><clipPath id="e352b051f2"><path d="M 10 87 L 48 87 L 48 112 L 10 112 Z M 10 87 " clip-rule="nonzero"/></clipPath><clipPath id="f63c51fff0"><path d="M 29.417969 122.5625 L 6.582031 109.617188 L 25.8125 75.6875 L 48.648438 88.632812 Z M 29.417969 122.5625 " clip-rule="nonzero"/></clipPath><clipPath id="ba77013c64"><path d="M 29.417969 122.5625 L 6.582031 109.617188 L 25.8125 75.6875 L 48.648438 88.632812 Z M 29.417969 122.5625 " clip-rule="nonzero"/></clipPath><clipPath id="a577bb6556"><path d="M 32 101 L 47 101 L 47 138 L 32 138 Z M 32 101 " clip-rule="nonzero"/></clipPath><clipPath id="880ad39a43"><path d="M 53.171875 134.53125 L 31.019531 138.484375 L 24.964844 104.519531 L 47.113281 100.570312 Z M 53.171875 134.53125 " clip-rule="nonzero"/></clipPath><clipPath id="3135044336"><path d="M 53.171875 134.53125 L 31.019531 138.484375 L 24.964844 104.519531 L 47.113281 100.570312 Z M 53.171875 134.53125 " clip-rule="nonzero"/></clipPath><clipPath id="6cb036c6aa"><path d="M 50 112 L 64 112 L 64 145 L 50 145 Z M 50 112 " clip-rule="nonzero"/></clipPath><clipPath id="a7b7507564"><path d="M 39.820312 124.578125 L 53.609375 110.789062 L 74.289062 131.472656 L 60.503906 145.257812 Z M 39.820312 124.578125 " clip-rule="nonzero"/></clipPath><clipPath id="3e87b7c742"><path d="M 39.820312 124.578125 L 53.609375 110.789062 L 74.289062 131.472656 L 60.503906 145.257812 Z M 39.820312 124.578125 " clip-rule="nonzero"/></clipPath><clipPath id="97071435ca"><path d="M 68 124 L 95 124 L 95 139 L 68 139 Z M 68 124 " clip-rule="nonzero"/></clipPath><clipPath id="0b75623920"><path d="M 94.507812 123.792969 L 94.199219 141.039062 L 67.957031 140.574219 L 68.261719 123.324219 Z M 94.507812 123.792969 " clip-rule="nonzero"/></clipPath><clipPath id="8c6ddebd65"><path d="M 94.507812 123.792969 L 94.199219 141.039062 L 67.957031 140.574219 L 68.261719 123.324219 Z M 94.507812 123.792969 " clip-rule="nonzero"/></clipPath><clipPath id="5703a200fd"><path d="M 81 117 L 101 117 L 101 124 L 81 124 Z M 81 117 " clip-rule="nonzero"/></clipPath><clipPath id="fad58a588e"><path d="M 95.359375 110.960938 L 101.828125 120.164062 L 87.714844 130.082031 L 81.246094 120.878906 Z M 95.359375 110.960938 " clip-rule="nonzero"/></clipPath><clipPath id="af3db411da"><path d="M 95.359375 110.960938 L 101.828125 120.164062 L 87.714844 130.082031 L 81.246094 120.878906 Z M 95.359375 110.960938 " clip-rule="nonzero"/></clipPath></defs><g fill="#1b2021" fill-opacity="1"><g transform="translate(57.246614, 99.35024)"><g><path d="M 30.265625 -27.171875 L 30.265625 -3.3125 C 30.265625 1.300781 29.132812 4.71875 26.875 6.9375 C 24.625 9.164062 21.226562 10.28125 16.6875 10.28125 C 14.164062 10.28125 11.773438 9.910156 9.515625 9.171875 C 7.265625 8.429688 5.4375 7.40625 4.03125 6.09375 L 5.890625 3.3125 C 7.203125 4.476562 8.796875 5.390625 10.671875 6.046875 C 12.546875 6.703125 14.515625 7.03125 16.578125 7.03125 C 20.023438 7.03125 22.554688 6.226562 24.171875 4.625 C 25.796875 3.019531 26.609375 0.53125 26.609375 -2.84375 L 26.609375 -6.296875 C 25.460938 -4.578125 23.96875 -3.269531 22.125 -2.375 C 20.289062 -1.476562 18.253906 -1.03125 16.015625 -1.03125 C 13.460938 -1.03125 11.144531 -1.585938 9.0625 -2.703125 C 6.976562 -3.828125 5.34375 -5.394531 4.15625 -7.40625 C 2.96875 -9.425781 2.375 -11.707031 2.375 -14.25 C 2.375 -16.800781 2.96875 -19.078125 4.15625 -21.078125 C 5.34375 -23.078125 6.96875 -24.625 9.03125 -25.71875 C 11.101562 -26.820312 13.429688 -27.375 16.015625 -27.375 C 18.316406 -27.375 20.394531 -26.910156 22.25 -25.984375 C 24.113281 -25.054688 25.617188 -23.710938 26.765625 -21.953125 L 26.765625 -27.171875 Z M 16.375 -4.28125 C 18.332031 -4.28125 20.101562 -4.703125 21.6875 -5.546875 C 23.28125 -6.390625 24.515625 -7.566406 25.390625 -9.078125 C 26.265625 -10.597656 26.703125 -12.320312 26.703125 -14.25 C 26.703125 -16.1875 26.265625 -17.898438 25.390625 -19.390625 C 24.515625 -20.890625 23.289062 -22.0625 21.71875 -22.90625 C 20.15625 -23.75 18.375 -24.171875 16.375 -24.171875 C 14.414062 -24.171875 12.648438 -23.757812 11.078125 -22.9375 C 9.515625 -22.113281 8.289062 -20.941406 7.40625 -19.421875 C 6.53125 -17.910156 6.09375 -16.1875 6.09375 -14.25 C 6.09375 -12.320312 6.53125 -10.597656 7.40625 -9.078125 C 8.289062 -7.566406 9.515625 -6.390625 11.078125 -5.546875 C 12.648438 -4.703125 14.414062 -4.28125 16.375 -4.28125 Z M 16.375 -4.28125 "/></g></g></g><g fill="#1b2021" fill-opacity="1"><g transform="translate(90.357906, 99.35024)"><g><path d="M 27.953125 -27.171875 L 14.359375 3.25 C 13.253906 5.800781 11.976562 7.609375 10.53125 8.671875 C 9.09375 9.742188 7.359375 10.28125 5.328125 10.28125 C 4.015625 10.28125 2.789062 10.070312 1.65625 9.65625 C 0.519531 9.25 -0.460938 8.628906 -1.296875 7.796875 L 0.40625 5.0625 C 1.789062 6.4375 3.445312 7.125 5.375 7.125 C 6.613281 7.125 7.671875 6.78125 8.546875 6.09375 C 9.421875 5.40625 10.238281 4.234375 11 2.578125 L 12.1875 -0.046875 L 0.046875 -27.171875 L 3.875 -27.171875 L 14.109375 -4.078125 L 24.328125 -27.171875 Z M 27.953125 -27.171875 "/></g></g></g><g fill="#1b2021" fill-opacity="1"><g transform="translate(116.030688, 99.35024)"><g><path d="M 18.953125 -27.375 C 22.367188 -27.375 25.082031 -26.382812 27.09375 -24.40625 C 29.101562 -22.425781 30.109375 -19.539062 30.109375 -15.75 L 30.109375 0 L 26.453125 0 L 26.453125 -15.390625 C 26.453125 -18.210938 25.742188 -20.363281 24.328125 -21.84375 C 22.921875 -23.332031 20.90625 -24.078125 18.28125 -24.078125 C 15.351562 -24.078125 13.035156 -23.207031 11.328125 -21.46875 C 9.628906 -19.726562 8.78125 -17.320312 8.78125 -14.25 L 8.78125 0 L 5.109375 0 L 5.109375 -27.171875 L 8.625 -27.171875 L 8.625 -22.15625 C 9.625 -23.8125 11.007812 -25.09375 12.78125 -26 C 14.550781 -26.914062 16.609375 -27.375 18.953125 -27.375 Z M 18.953125 -27.375 "/></g></g></g><g fill="#1b2021" fill-opacity="1"><g transform="translate(148.677063, 99.35024)"><g><path d="M 28.765625 -12.453125 L 6.046875 -12.453125 C 6.253906 -9.628906 7.335938 -7.347656 9.296875 -5.609375 C 11.265625 -3.867188 13.742188 -3 16.734375 -3 C 18.421875 -3 19.96875 -3.296875 21.375 -3.890625 C 22.789062 -4.492188 24.015625 -5.382812 25.046875 -6.5625 L 27.125 -4.1875 C 25.914062 -2.738281 24.40625 -1.632812 22.59375 -0.875 C 20.789062 -0.113281 18.804688 0.265625 16.640625 0.265625 C 13.847656 0.265625 11.375 -0.328125 9.21875 -1.515625 C 7.0625 -2.710938 5.378906 -4.359375 4.171875 -6.453125 C 2.972656 -8.554688 2.375 -10.929688 2.375 -13.578125 C 2.375 -16.234375 2.953125 -18.609375 4.109375 -20.703125 C 5.265625 -22.804688 6.847656 -24.441406 8.859375 -25.609375 C 10.867188 -26.785156 13.132812 -27.375 15.65625 -27.375 C 18.164062 -27.375 20.421875 -26.785156 22.421875 -25.609375 C 24.421875 -24.441406 25.988281 -22.816406 27.125 -20.734375 C 28.257812 -18.648438 28.828125 -16.265625 28.828125 -13.578125 Z M 15.65625 -24.234375 C 13.03125 -24.234375 10.832031 -23.394531 9.0625 -21.71875 C 7.289062 -20.050781 6.285156 -17.875 6.046875 -15.1875 L 25.3125 -15.1875 C 25.070312 -17.875 24.0625 -20.050781 22.28125 -21.71875 C 20.507812 -23.394531 18.300781 -24.234375 15.65625 -24.234375 Z M 15.65625 -24.234375 "/></g></g></g><g fill="#1b2021" fill-opacity="1"><g transform="translate(177.552531, 99.35024)"><g><path d="M 15.1875 -13.640625 L 8.78125 -7.75 L 8.78125 0 L 5.109375 0 L 5.109375 -38.328125 L 8.78125 -38.328125 L 8.78125 -12.34375 L 25 -27.171875 L 29.546875 -27.171875 L 17.921875 -16.0625 L 30.625 0 L 26.140625 0 Z M 15.1875 -13.640625 "/></g></g></g><g fill="#1b2021" fill-opacity="1"><g transform="translate(206.273033, 99.35024)"><g><path d="M 16.21875 0.265625 C 13.601562 0.265625 11.242188 -0.328125 9.140625 -1.515625 C 7.035156 -2.710938 5.378906 -4.359375 4.171875 -6.453125 C 2.972656 -8.554688 2.375 -10.929688 2.375 -13.578125 C 2.375 -16.234375 2.972656 -18.609375 4.171875 -20.703125 C 5.378906 -22.804688 7.035156 -24.441406 9.140625 -25.609375 C 11.242188 -26.785156 13.601562 -27.375 16.21875 -27.375 C 18.832031 -27.375 21.191406 -26.785156 23.296875 -25.609375 C 25.398438 -24.441406 27.046875 -22.804688 28.234375 -20.703125 C 29.421875 -18.609375 30.015625 -16.234375 30.015625 -13.578125 C 30.015625 -10.929688 29.421875 -8.554688 28.234375 -6.453125 C 27.046875 -4.359375 25.398438 -2.710938 23.296875 -1.515625 C 21.191406 -0.328125 18.832031 0.265625 16.21875 0.265625 Z M 16.21875 -3 C 18.144531 -3 19.875 -3.4375 21.40625 -4.3125 C 22.9375 -5.1875 24.132812 -6.429688 25 -8.046875 C 25.863281 -9.671875 26.296875 -11.515625 26.296875 -13.578125 C 26.296875 -15.648438 25.863281 -17.492188 25 -19.109375 C 24.132812 -20.734375 22.9375 -21.984375 21.40625 -22.859375 C 19.875 -23.734375 18.144531 -24.171875 16.21875 -24.171875 C 14.289062 -24.171875 12.5625 -23.734375 11.03125 -22.859375 C 9.5 -21.984375 8.289062 -20.734375 7.40625 -19.109375 C 6.53125 -17.492188 6.09375 -15.648438 6.09375 -13.578125 C 6.09375 -11.515625 6.53125 -9.671875 7.40625 -8.046875 C 8.289062 -6.429688 9.5 -5.1875 11.03125 -4.3125 C 12.5625 -3.4375 14.289062 -3 16.21875 -3 Z M 16.21875 -3 "/></g></g></g><g fill="#1b2021" fill-opacity="1"><g transform="translate(236.336604, 99.35024)"><g><path d="M 5.109375 -38.328125 L 8.78125 -38.328125 L 8.78125 0 L 5.109375 0 Z M 5.109375 -38.328125 "/></g></g></g><g fill="#1b2021" fill-opacity="1"><g transform="translate(247.90721, 99.35024)"><g><path d="M 16.21875 0.265625 C 13.601562 0.265625 11.242188 -0.328125 9.140625 -1.515625 C 7.035156 -2.710938 5.378906 -4.359375 4.171875 -6.453125 C 2.972656 -8.554688 2.375 -10.929688 2.375 -13.578125 C 2.375 -16.234375 2.972656 -18.609375 4.171875 -20.703125 C 5.378906 -22.804688 7.035156 -24.441406 9.140625 -25.609375 C 11.242188 -26.785156 13.601562 -27.375 16.21875 -27.375 C 18.832031 -27.375 21.191406 -26.785156 23.296875 -25.609375 C 25.398438 -24.441406 27.046875 -22.804688 28.234375 -20.703125 C 29.421875 -18.609375 30.015625 -16.234375 30.015625 -13.578125 C 30.015625 -10.929688 29.421875 -8.554688 28.234375 -6.453125 C 27.046875 -4.359375 25.398438 -2.710938 23.296875 -1.515625 C 21.191406 -0.328125 18.832031 0.265625 16.21875 0.265625 Z M 16.21875 -3 C 18.144531 -3 19.875 -3.4375 21.40625 -4.3125 C 22.9375 -5.1875 24.132812 -6.429688 25 -8.046875 C 25.863281 -9.671875 26.296875 -11.515625 26.296875 -13.578125 C 26.296875 -15.648438 25.863281 -17.492188 25 -19.109375 C 24.132812 -20.734375 22.9375 -21.984375 21.40625 -22.859375 C 19.875 -23.734375 18.144531 -24.171875 16.21875 -24.171875 C 14.289062 -24.171875 12.5625 -23.734375 11.03125 -22.859375 C 9.5 -21.984375 8.289062 -20.734375 7.40625 -19.109375 C 6.53125 -17.492188 6.09375 -15.648438 6.09375 -13.578125 C 6.09375 -11.515625 6.53125 -9.671875 7.40625 -8.046875 C 8.289062 -6.429688 9.5 -5.1875 11.03125 -4.3125 C 12.5625 -3.4375 14.289062 -3 16.21875 -3 Z M 16.21875 -3 "/></g></g></g><g fill="#1b2021" fill-opacity="1"><g transform="translate(277.970768, 99.35024)"><g><path d="M 30.265625 -27.171875 L 30.265625 -3.3125 C 30.265625 1.300781 29.132812 4.71875 26.875 6.9375 C 24.625 9.164062 21.226562 10.28125 16.6875 10.28125 C 14.164062 10.28125 11.773438 9.910156 9.515625 9.171875 C 7.265625 8.429688 5.4375 7.40625 4.03125 6.09375 L 5.890625 3.3125 C 7.203125 4.476562 8.796875 5.390625 10.671875 6.046875 C 12.546875 6.703125 14.515625 7.03125 16.578125 7.03125 C 20.023438 7.03125 22.554688 6.226562 24.171875 4.625 C 25.796875 3.019531 26.609375 0.53125 26.609375 -2.84375 L 26.609375 -6.296875 C 25.460938 -4.578125 23.96875 -3.269531 22.125 -2.375 C 20.289062 -1.476562 18.253906 -1.03125 16.015625 -1.03125 C 13.460938 -1.03125 11.144531 -1.585938 9.0625 -2.703125 C 6.976562 -3.828125 5.34375 -5.394531 4.15625 -7.40625 C 2.96875 -9.425781 2.375 -11.707031 2.375 -14.25 C 2.375 -16.800781 2.96875 -19.078125 4.15625 -21.078125 C 5.34375 -23.078125 6.96875 -24.625 9.03125 -25.71875 C 11.101562 -26.820312 13.429688 -27.375 16.015625 -27.375 C 18.316406 -27.375 20.394531 -26.910156 22.25 -25.984375 C 24.113281 -25.054688 25.617188 -23.710938 26.765625 -21.953125 L 26.765625 -27.171875 Z M 16.375 -4.28125 C 18.332031 -4.28125 20.101562 -4.703125 21.6875 -5.546875 C 23.28125 -6.390625 24.515625 -7.566406 25.390625 -9.078125 C 26.265625 -10.597656 26.703125 -12.320312 26.703125 -14.25 C 26.703125 -16.1875 26.265625 -17.898438 25.390625 -19.390625 C 24.515625 -20.890625 23.289062 -22.0625 21.71875 -22.90625 C 20.15625 -23.75 18.375 -24.171875 16.375 -24.171875 C 14.414062 -24.171875 12.648438 -23.757812 11.078125 -22.9375 C 9.515625 -22.113281 8.289062 -20.941406 7.40625 -19.421875 C 6.53125 -17.910156 6.09375 -16.1875 6.09375 -14.25 C 6.09375 -12.320312 6.53125 -10.597656 7.40625 -9.078125 C 8.289062 -7.566406 9.515625 -6.390625 11.078125 -5.546875 C 12.648438 -4.703125 14.414062 -4.28125 16.375 -4.28125 Z M 16.375 -4.28125 "/></g></g></g><g fill="#1b2021" fill-opacity="1"><g transform="translate(311.082048, 99.35024)"><g><path d="M 5.109375 -27.171875 L 8.78125 -27.171875 L 8.78125 0 L 5.109375 0 Z M 6.96875 -33.109375 C 6.207031 -33.109375 5.566406 -33.363281 5.046875 -33.875 C 4.535156 -34.394531 4.28125 -35.019531 4.28125 -35.75 C 4.28125 -36.4375 4.535156 -37.035156 5.046875 -37.546875 C 5.566406 -38.066406 6.207031 -38.328125 6.96875 -38.328125 C 7.726562 -38.328125 8.363281 -38.078125 8.875 -37.578125 C 9.394531 -37.078125 9.65625 -36.484375 9.65625 -35.796875 C 9.65625 -35.035156 9.394531 -34.394531 8.875 -33.875 C 8.363281 -33.363281 7.726562 -33.109375 6.96875 -33.109375 Z M 6.96875 -33.109375 "/></g></g></g><g fill="#1b2021" fill-opacity="1"><g transform="translate(322.652665, 99.35024)"><g><path d="M 28.765625 -12.453125 L 6.046875 -12.453125 C 6.253906 -9.628906 7.335938 -7.347656 9.296875 -5.609375 C 11.265625 -3.867188 13.742188 -3 16.734375 -3 C 18.421875 -3 19.96875 -3.296875 21.375 -3.890625 C 22.789062 -4.492188 24.015625 -5.382812 25.046875 -6.5625 L 27.125 -4.1875 C 25.914062 -2.738281 24.40625 -1.632812 22.59375 -0.875 C 20.789062 -0.113281 18.804688 0.265625 16.640625 0.265625 C 13.847656 0.265625 11.375 -0.328125 9.21875 -1.515625 C 7.0625 -2.710938 5.378906 -4.359375 4.171875 -6.453125 C 2.972656 -8.554688 2.375 -10.929688 2.375 -13.578125 C 2.375 -16.234375 2.953125 -18.609375 4.109375 -20.703125 C 5.265625 -22.804688 6.847656 -24.441406 8.859375 -25.609375 C 10.867188 -26.785156 13.132812 -27.375 15.65625 -27.375 C 18.164062 -27.375 20.421875 -26.785156 22.421875 -25.609375 C 24.421875 -24.441406 25.988281 -22.816406 27.125 -20.734375 C 28.257812 -18.648438 28.828125 -16.265625 28.828125 -13.578125 Z M 15.65625 -24.234375 C 13.03125 -24.234375 10.832031 -23.394531 9.0625 -21.71875 C 7.289062 -20.050781 6.285156 -17.875 6.046875 -15.1875 L 25.3125 -15.1875 C 25.070312 -17.875 24.0625 -20.050781 22.28125 -21.71875 C 20.507812 -23.394531 18.300781 -24.234375 15.65625 -24.234375 Z M 15.65625 -24.234375 "/></g></g></g><g clip-path="url(#b86962b752)"><g clip-path="url(#b977b304c7)"><g clip-path="url(#fb23e27f81)"><path fill="#89023e" d="M 71.460938 66.605469 C 71.460938 66.605469 53.234375 36.316406 71.550781 7.332031 C 71.550781 7.332031 96.082031 41.6875 71.460938 66.605469 Z M 71.460938 66.605469 " fill-opacity="1" fill-rule="nonzero"/></g></g></g><g clip-path="url(#6b5d9225e6)"><g clip-path="url(#f454fd6728)"><g clip-path="url(#4453b23f07)"><path fill="#89023e" d="M 63.695312 69.941406 C 63.695312 69.941406 31.921875 64.371094 22.914062 34.402344 C 22.914062 34.402344 61.265625 38.066406 63.695312 69.941406 Z M 63.695312 69.941406 " fill-opacity="1" fill-rule="nonzero"/></g></g></g><g clip-path="url(#56b8cf0c3d)"><g clip-path="url(#4590dfc2eb)"><g clip-path="url(#943752d712)"><path fill="#89023e" d="M 53.929688 76.507812 C 53.929688 76.507812 28.96875 92.457031 4.277344 77.761719 C 4.277344 77.761719 32.507812 56.445312 53.929688 76.507812 Z M 53.929688 76.507812 " fill-opacity="1" fill-rule="nonzero"/></g></g></g><g clip-path="url(#e352b051f2)"><g clip-path="url(#f63c51fff0)"><g clip-path="url(#ba77013c64)"><path fill="#89023e" d="M 47.679688 88 C 47.679688 88 35.730469 111.480469 10.175781 111.347656 C 10.175781 111.347656 22.207031 82.273438 47.679688 88 Z M 47.679688 88 " fill-opacity="1" fill-rule="nonzero"/></g></g></g><g clip-path="url(#a577bb6556)"><g clip-path="url(#880ad39a43)"><g clip-path="url(#3135044336)"><path fill="#89023e" d="M 46.210938 101.246094 C 46.210938 101.246094 51.246094 123.601562 34.054688 137.699219 C 34.054688 137.699219 25.976562 111.550781 46.210938 101.246094 Z M 46.210938 101.246094 " fill-opacity="1" fill-rule="nonzero"/></g></g></g><g clip-path="url(#6cb036c6aa)"><g clip-path="url(#a7b7507564)"><g clip-path="url(#3e87b7c742)"><path fill="#89023e" d="M 61.214844 144.742188 C 61.214844 144.742188 46.585938 131.371094 51.808594 112.871094 C 51.808594 112.871094 70.472656 127.421875 61.214844 144.742188 Z M 61.214844 144.742188 " fill-opacity="1" fill-rule="nonzero"/></g></g></g><g clip-path="url(#97071435ca)"><g clip-path="url(#0b75623920)"><g clip-path="url(#8c6ddebd65)"><path fill="#89023e" d="M 68.289062 124.101562 C 68.289062 124.101562 85.957031 123.625 94.0625 138.730469 C 94.0625 138.730469 73.074219 140.949219 68.289062 124.101562 Z M 68.289062 124.101562 " fill-opacity="1" fill-rule="nonzero"/></g></g></g><g clip-path="url(#5703a200fd)"><g clip-path="url(#fad58a588e)"><g clip-path="url(#af3db411da)"><path fill="#89023e" d="M 81.777344 121.121094 C 81.777344 121.121094 90.824219 114.136719 100.816406 118.9375 C 100.816406 118.9375 90.699219 128.097656 81.777344 121.121094 Z M 81.777344 121.121094 " fill-opacity="1" fill-rule="nonzero"/></g></g></g><g fill="#1b2021" fill-opacity="1"><g transform="translate(112.420462, 122.390253)"><g><path d="M 11.0625 -9.203125 L 11.0625 0 L 10.125 0 L 10.125 -7.375 L 6.515625 -1.171875 L 6.046875 -1.171875 L 2.4375 -7.328125 L 2.4375 0 L 1.5 0 L 1.5 -9.203125 L 2.296875 -9.203125 L 6.296875 -2.375 L 10.265625 -9.203125 Z M 11.0625 -9.203125 "/></g></g></g><g fill="#1b2021" fill-opacity="1"><g transform="translate(130.478571, 122.390253)"><g><path d="M 5.203125 0.078125 C 4.015625 0.078125 3.085938 -0.257812 2.421875 -0.9375 C 1.753906 -1.625 1.421875 -2.625 1.421875 -3.9375 L 1.421875 -9.203125 L 2.390625 -9.203125 L 2.390625 -3.96875 C 2.390625 -2.90625 2.628906 -2.109375 3.109375 -1.578125 C 3.597656 -1.054688 4.296875 -0.796875 5.203125 -0.796875 C 6.128906 -0.796875 6.832031 -1.054688 7.3125 -1.578125 C 7.789062 -2.109375 8.03125 -2.90625 8.03125 -3.96875 L 8.03125 -9.203125 L 8.984375 -9.203125 L 8.984375 -3.9375 C 8.984375 -2.625 8.648438 -1.625 7.984375 -0.9375 C 7.328125 -0.257812 6.398438 0.078125 5.203125 0.078125 Z M 5.203125 0.078125 "/></g></g></g><g fill="#1b2021" fill-opacity="1"><g transform="translate(146.393499, 122.390253)"><g><path d="M 1.5 -9.203125 L 5.25 -9.203125 C 6.21875 -9.203125 7.078125 -9.003906 7.828125 -8.609375 C 8.578125 -8.222656 9.15625 -7.679688 9.5625 -6.984375 C 9.976562 -6.296875 10.1875 -5.503906 10.1875 -4.609375 C 10.1875 -3.710938 9.976562 -2.914062 9.5625 -2.21875 C 9.15625 -1.519531 8.578125 -0.972656 7.828125 -0.578125 C 7.078125 -0.191406 6.21875 0 5.25 0 L 1.5 0 Z M 5.203125 -0.84375 C 6.003906 -0.84375 6.707031 -1 7.3125 -1.3125 C 7.914062 -1.632812 8.382812 -2.078125 8.71875 -2.640625 C 9.050781 -3.210938 9.21875 -3.867188 9.21875 -4.609375 C 9.21875 -5.335938 9.050781 -5.984375 8.71875 -6.546875 C 8.382812 -7.117188 7.914062 -7.566406 7.3125 -7.890625 C 6.707031 -8.210938 6.003906 -8.375 5.203125 -8.375 L 2.46875 -8.375 L 2.46875 -0.84375 Z M 5.203125 -0.84375 "/></g></g></g><g fill="#1b2021" fill-opacity="1"><g transform="translate(162.755465, 122.390253)"><g><path d="M 7.78125 0 L 5.6875 -2.953125 C 5.445312 -2.929688 5.203125 -2.921875 4.953125 -2.921875 L 2.46875 -2.921875 L 2.46875 0 L 1.5 0 L 1.5 -9.203125 L 4.953125 -9.203125 C 6.117188 -9.203125 7.035156 -8.921875 7.703125 -8.359375 C 8.367188 -7.804688 8.703125 -7.035156 8.703125 -6.046875 C 8.703125 -5.328125 8.519531 -4.71875 8.15625 -4.21875 C 7.800781 -3.726562 7.285156 -3.375 6.609375 -3.15625 L 8.859375 0 Z M 4.921875 -3.75 C 5.828125 -3.75 6.519531 -3.945312 7 -4.34375 C 7.488281 -4.75 7.734375 -5.316406 7.734375 -6.046875 C 7.734375 -6.796875 7.488281 -7.367188 7 -7.765625 C 6.519531 -8.171875 5.828125 -8.375 4.921875 -8.375 L 2.46875 -8.375 L 2.46875 -3.75 Z M 4.921875 -3.75 "/></g></g></g><g fill="#1b2021" fill-opacity="1"><g transform="translate(177.763166, 122.390253)"><g><path d="M 1.390625 0.0625 C 1.203125 0.0625 1.039062 -0.00390625 0.90625 -0.140625 C 0.769531 -0.285156 0.703125 -0.457031 0.703125 -0.65625 C 0.703125 -0.851562 0.769531 -1.019531 0.90625 -1.15625 C 1.039062 -1.300781 1.203125 -1.375 1.390625 -1.375 C 1.585938 -1.375 1.753906 -1.300781 1.890625 -1.15625 C 2.035156 -1.019531 2.109375 -0.851562 2.109375 -0.65625 C 2.109375 -0.457031 2.035156 -0.285156 1.890625 -0.140625 C 1.753906 -0.00390625 1.585938 0.0625 1.390625 0.0625 Z M 1.390625 0.0625 "/></g></g></g><g fill="#1b2021" fill-opacity="1"><g transform="translate(186.052041, 122.390253)"><g/></g></g><g fill="#1b2021" fill-opacity="1"><g transform="translate(194.998345, 122.390253)"><g><path d="M 2.484375 0.078125 C 1.960938 0.078125 1.476562 -0.0351562 1.03125 -0.265625 C 0.582031 -0.492188 0.21875 -0.816406 -0.0625 -1.234375 L 0.515625 -1.890625 C 1.023438 -1.140625 1.6875 -0.765625 2.5 -0.765625 C 3.632812 -0.765625 4.203125 -1.441406 4.203125 -2.796875 L 4.203125 -8.375 L 0.84375 -8.375 L 0.84375 -9.203125 L 5.171875 -9.203125 L 5.171875 -2.828125 C 5.171875 -1.859375 4.941406 -1.128906 4.484375 -0.640625 C 4.035156 -0.160156 3.367188 0.078125 2.484375 0.078125 Z M 2.484375 0.078125 "/></g></g></g><g fill="#1b2021" fill-opacity="1"><g transform="translate(207.087105, 122.390253)"><g><path d="M 7.28125 -2.453125 L 2.140625 -2.453125 L 1.046875 0 L 0.03125 0 L 4.234375 -9.203125 L 5.203125 -9.203125 L 9.40625 0 L 8.375 0 Z M 6.921875 -3.25 L 4.703125 -8.203125 L 2.5 -3.25 Z M 6.921875 -3.25 "/></g></g></g><g fill="#1b2021" fill-opacity="1"><g transform="translate(222.01591, 122.390253)"><g><path d="M 9.203125 -9.203125 L 9.203125 0 L 8.390625 0 L 2.46875 -7.46875 L 2.46875 0 L 1.5 0 L 1.5 -9.203125 L 2.296875 -9.203125 L 8.234375 -1.734375 L 8.234375 -9.203125 Z M 9.203125 -9.203125 "/></g></g></g><g fill="#1b2021" fill-opacity="1"><g transform="translate(238.206953, 122.390253)"><g><path d="M 7.28125 -2.453125 L 2.140625 -2.453125 L 1.046875 0 L 0.03125 0 L 4.234375 -9.203125 L 5.203125 -9.203125 L 9.40625 0 L 8.375 0 Z M 6.921875 -3.25 L 4.703125 -8.203125 L 2.5 -3.25 Z M 6.921875 -3.25 "/></g></g></g><g fill="#1b2021" fill-opacity="1"><g transform="translate(253.135758, 122.390253)"><g/></g></g><g fill="#1b2021" fill-opacity="1"><g transform="translate(262.082062, 122.390253)"><g><path d="M 3.28125 -8.375 L 0.046875 -8.375 L 0.046875 -9.203125 L 7.5 -9.203125 L 7.5 -8.375 L 4.265625 -8.375 L 4.265625 0 L 3.28125 0 Z M 3.28125 -8.375 "/></g></g></g><g fill="#1b2021" fill-opacity="1"><g transform="translate(275.130649, 122.390253)"><g><path d="M 5.203125 0.078125 C 4.015625 0.078125 3.085938 -0.257812 2.421875 -0.9375 C 1.753906 -1.625 1.421875 -2.625 1.421875 -3.9375 L 1.421875 -9.203125 L 2.390625 -9.203125 L 2.390625 -3.96875 C 2.390625 -2.90625 2.628906 -2.109375 3.109375 -1.578125 C 3.597656 -1.054688 4.296875 -0.796875 5.203125 -0.796875 C 6.128906 -0.796875 6.832031 -1.054688 7.3125 -1.578125 C 7.789062 -2.109375 8.03125 -2.90625 8.03125 -3.96875 L 8.03125 -9.203125 L 8.984375 -9.203125 L 8.984375 -3.9375 C 8.984375 -2.625 8.648438 -1.625 7.984375 -0.9375 C 7.328125 -0.257812 6.398438 0.078125 5.203125 0.078125 Z M 5.203125 -10.125 C 4.804688 -10.125 4.476562 -10.253906 4.21875 -10.515625 C 3.957031 -10.785156 3.828125 -11.101562 3.828125 -11.46875 C 3.828125 -11.84375 3.957031 -12.164062 4.21875 -12.4375 C 4.488281 -12.707031 4.816406 -12.84375 5.203125 -12.84375 C 5.585938 -12.84375 5.910156 -12.707031 6.171875 -12.4375 C 6.441406 -12.164062 6.578125 -11.84375 6.578125 -11.46875 C 6.578125 -11.101562 6.441406 -10.785156 6.171875 -10.515625 C 5.910156 -10.253906 5.585938 -10.125 5.203125 -10.125 Z M 5.203125 -10.578125 C 5.460938 -10.578125 5.675781 -10.660156 5.84375 -10.828125 C 6.007812 -10.992188 6.09375 -11.207031 6.09375 -11.46875 C 6.09375 -11.71875 6.003906 -11.929688 5.828125 -12.109375 C 5.660156 -12.296875 5.453125 -12.390625 5.203125 -12.390625 C 4.941406 -12.390625 4.726562 -12.300781 4.5625 -12.125 C 4.394531 -11.945312 4.3125 -11.726562 4.3125 -11.46875 C 4.3125 -11.207031 4.390625 -10.992188 4.546875 -10.828125 C 4.710938 -10.660156 4.929688 -10.578125 5.203125 -10.578125 Z M 5.203125 -10.578125 "/></g></g></g><g fill="#1b2021" fill-opacity="1"><g transform="translate(291.045581, 122.390253)"><g><path d="M 11.0625 -9.203125 L 11.0625 0 L 10.125 0 L 10.125 -7.375 L 6.515625 -1.171875 L 6.046875 -1.171875 L 2.4375 -7.328125 L 2.4375 0 L 1.5 0 L 1.5 -9.203125 L 2.296875 -9.203125 L 6.296875 -2.375 L 10.265625 -9.203125 Z M 11.0625 -9.203125 "/></g></g></g><g fill="#1b2021" fill-opacity="1"><g transform="translate(309.103693, 122.390253)"><g><path d="M 5.53125 0.078125 C 4.613281 0.078125 3.785156 -0.125 3.046875 -0.53125 C 2.304688 -0.9375 1.726562 -1.492188 1.3125 -2.203125 C 0.894531 -2.921875 0.6875 -3.722656 0.6875 -4.609375 C 0.6875 -5.492188 0.894531 -6.289062 1.3125 -7 C 1.726562 -7.707031 2.304688 -8.265625 3.046875 -8.671875 C 3.785156 -9.078125 4.613281 -9.28125 5.53125 -9.28125 C 6.4375 -9.28125 7.253906 -9.078125 7.984375 -8.671875 C 8.722656 -8.273438 9.300781 -7.71875 9.71875 -7 C 10.144531 -6.289062 10.359375 -5.492188 10.359375 -4.609375 C 10.359375 -3.722656 10.144531 -2.921875 9.71875 -2.203125 C 9.300781 -1.484375 8.722656 -0.921875 7.984375 -0.515625 C 7.253906 -0.117188 6.4375 0.078125 5.53125 0.078125 Z M 5.53125 -0.796875 C 6.257812 -0.796875 6.914062 -0.957031 7.5 -1.28125 C 8.082031 -1.613281 8.539062 -2.070312 8.875 -2.65625 C 9.207031 -3.238281 9.375 -3.890625 9.375 -4.609375 C 9.375 -5.328125 9.207031 -5.976562 8.875 -6.5625 C 8.539062 -7.144531 8.082031 -7.597656 7.5 -7.921875 C 6.914062 -8.253906 6.257812 -8.421875 5.53125 -8.421875 C 4.800781 -8.421875 4.140625 -8.253906 3.546875 -7.921875 C 2.953125 -7.597656 2.484375 -7.144531 2.140625 -6.5625 C 1.804688 -5.976562 1.640625 -5.328125 1.640625 -4.609375 C 1.640625 -3.890625 1.804688 -3.238281 2.140625 -2.65625 C 2.484375 -2.070312 2.953125 -1.613281 3.546875 -1.28125 C 4.140625 -0.957031 4.800781 -0.796875 5.53125 -0.796875 Z M 5.53125 -0.796875 "/></g></g></g><g fill="#1b2021" fill-opacity="1"><g transform="translate(325.636582, 122.390253)"><g><path d="M 9.15625 -9.203125 L 5.078125 0 L 4.125 0 L 0.046875 -9.203125 L 1.09375 -9.203125 L 4.625 -1.203125 L 8.171875 -9.203125 Z M 9.15625 -9.203125 "/></g></g></g><g fill="#1b2021" fill-opacity="1"><g transform="translate(340.315551, 122.390253)"><g><path d="M 7.28125 -2.453125 L 2.140625 -2.453125 L 1.046875 0 L 0.03125 0 L 4.234375 -9.203125 L 5.203125 -9.203125 L 9.40625 0 L 8.375 0 Z M 6.921875 -3.25 L 4.703125 -8.203125 L 2.5 -3.25 Z M 5.671875 -11.59375 L 6.921875 -11.59375 L 4.796875 -9.953125 L 3.875 -9.953125 Z M 5.671875 -11.59375 "/></g></g></g></svg>