<svg xmlns="http://www.w3.org/2000/svg" xmlns:xlink="http://www.w3.org/1999/xlink" width="100" zoomAndPan="magnify" viewBox="0 0 75 74.999997" height="100" preserveAspectRatio="xMidYMid meet" version="1.0"><defs><clipPath id="93f1c4fd82"><path d="M 8.046875 0 L 67 0 L 67 75 L 8.046875 75 Z M 8.046875 0 " clip-rule="nonzero"/></clipPath></defs><g clip-path="url(#93f1c4fd82)"><path fill="#ea638c" d="M 37.496094 0 C 21.289062 0 8.136719 13.15625 8.136719 29.359375 C 8.136719 36.773438 12.550781 45.589844 18.007812 53.429688 C 25.851562 64.707031 35.660156 74 35.660156 74 C 36.6875 74.976562 38.300781 74.976562 39.332031 74 C 39.332031 74 49.136719 64.707031 56.980469 53.429688 C 62.441406 45.589844 66.855469 36.773438 66.855469 29.359375 C 66.855469 13.15625 53.699219 0 37.496094 0 Z M 37.496094 5.339844 C 50.75 5.339844 61.515625 16.101562 61.515625 29.359375 C 61.515625 35.867188 57.390625 43.5 52.597656 50.382812 C 47.101562 58.28125 40.605469 65.171875 37.496094 68.3125 C 34.386719 65.171875 27.886719 58.28125 22.390625 50.382812 C 17.601562 43.5 13.472656 35.867188 13.472656 29.359375 C 13.472656 16.101562 24.238281 5.339844 37.496094 5.339844 Z M 37.496094 14.679688 C 29.390625 14.679688 22.816406 21.257812 22.816406 29.359375 C 22.816406 37.460938 29.390625 44.039062 37.496094 44.039062 C 45.597656 44.039062 52.175781 37.460938 52.175781 29.359375 C 52.175781 21.257812 45.597656 14.679688 37.496094 14.679688 Z M 37.496094 20.019531 C 42.652344 20.019531 46.835938 24.203125 46.835938 29.359375 C 46.835938 34.515625 42.652344 38.699219 37.496094 38.699219 C 32.339844 38.699219 28.152344 34.515625 28.152344 29.359375 C 28.152344 24.203125 32.339844 20.019531 37.496094 20.019531 Z M 37.496094 20.019531 " fill-opacity="1" fill-rule="evenodd"/></g></svg>