<svg xmlns="http://www.w3.org/2000/svg" xmlns:xlink="http://www.w3.org/1999/xlink" width="100" zoomAndPan="magnify" viewBox="0 0 75 74.999997" height="100" preserveAspectRatio="xMidYMid meet" version="1.0"><defs><clipPath id="dcdc6e9242"><path d="M 2 1.160156 L 75 1.160156 L 75 73.910156 L 2 73.910156 Z M 2 1.160156 " clip-rule="nonzero"/></clipPath></defs><g clip-path="url(#dcdc6e9242)"><path fill="#ea638c" d="M 73.328125 60.515625 L 62.203125 49.390625 C 60.527344 47.714844 57.8125 47.714844 56.140625 49.390625 L 50.835938 54.695312 C 42.785156 49.917969 26.28125 33.429688 21.507812 25.367188 L 26.8125 20.0625 C 28.484375 18.386719 28.484375 15.671875 26.8125 13.996094 L 15.699219 2.886719 C 14.027344 1.214844 11.296875 1.214844 9.625 2.886719 C 1.015625 11.511719 0 25.164062 7.308594 34.945312 C 7.320312 34.960938 20.019531 53.050781 37.421875 66.035156 C 39.753906 67.390625 45.34375 73.785156 55.953125 73.785156 C 62.472656 73.785156 68.722656 71.195312 73.328125 66.589844 C 75 64.902344 75 62.199219 73.328125 60.515625 Z M 73.328125 60.515625 " fill-opacity="1" fill-rule="nonzero"/></g><path fill="#ea638c" d="M 56.238281 38.691406 C 57.027344 38.691406 57.667969 38.050781 57.667969 37.261719 C 57.667969 27.011719 49.332031 18.675781 39.078125 18.675781 C 38.292969 18.675781 37.648438 19.316406 37.648438 20.105469 C 37.648438 20.890625 38.292969 21.535156 39.078125 21.535156 C 47.761719 21.535156 54.808594 28.582031 54.808594 37.261719 C 54.808594 38.050781 55.4375 38.691406 56.238281 38.691406 Z M 56.238281 38.691406 " fill-opacity="1" fill-rule="nonzero"/><path fill="#ea638c" d="M 37.191406 25.722656 C 36.40625 25.722656 35.761719 26.367188 35.761719 27.152344 C 35.761719 27.941406 36.40625 28.582031 37.191406 28.582031 C 43.011719 28.582031 47.746094 33.316406 47.746094 39.136719 C 47.746094 39.921875 48.390625 40.566406 49.175781 40.566406 C 49.960938 40.566406 50.605469 39.921875 50.605469 39.136719 C 50.605469 31.742188 44.585938 25.722656 37.191406 25.722656 Z M 37.191406 25.722656 " fill-opacity="1" fill-rule="nonzero"/><path fill="#ea638c" d="M 36.664062 12.796875 C 51.492188 12.796875 63.546875 24.851562 63.546875 39.679688 C 63.546875 40.464844 64.191406 41.109375 64.976562 41.109375 C 65.761719 41.109375 66.40625 40.464844 66.40625 39.679688 C 66.40625 23.277344 53.066406 9.9375 36.664062 9.9375 C 35.878906 9.9375 35.234375 10.582031 35.234375 11.367188 C 35.234375 12.152344 35.878906 12.796875 36.664062 12.796875 Z M 36.664062 12.796875 " fill-opacity="1" fill-rule="nonzero"/></svg>